nova.ufo
<glyph name="exclam" format="2">
  <advance width="300"/>
  <unicode hex="0021"/>
  <outline>
    <contour>
      <point x="100" y="100" type="line"/>
      <point x="200" y="100" type="line"/>
      <point x="200" y="200" type="line"/>
      <point x="100" y="200" type="line"/>
    </contour>
    <contour>
      <point x="100" y="300" type="line"/>
      <point x="200" y="300" type="line"/>
      <point x="200" y="400" type="line"/>
      <point x="100" y="400" type="line"/>
    </contour>
    <contour>
      <point x="100" y="400" type="line"/>
      <point x="200" y="400" type="line"/>
      <point x="200" y="500" type="line"/>
      <point x="100" y="500" type="line"/>
    </contour>
    <contour>
      <point x="100" y="500" type="line"/>
      <point x="200" y="500" type="line"/>
      <point x="200" y="600" type="line"/>
      <point x="100" y="600" type="line"/>
    </contour>
    <contour>
      <point x="100" y="600" type="line"/>
      <point x="200" y="600" type="line"/>
      <point x="200" y="700" type="line"/>
      <point x="100" y="700" type="line"/>
    </contour>
    <contour>
      <point x="100" y="700" type="line"/>
      <point x="200" y="700" type="line"/>
      <point x="200" y="800" type="line"/>
      <point x="100" y="800" type="line"/>
    </contour>
    <contour>
      <point x="100" y="800" type="line"/>
      <point x="200" y="800" type="line"/>
      <point x="200" y="900" type="line"/>
      <point x="100" y="900" type="line"/>
    </contour>
  </outline>
</glyph>
<glyph name="dollar" format="2">
  <advance width="700"/>
  <unicode hex="0024"/>
  <outline>
    <contour>
      <point x="300" y="0" type="line"/>
      <point x="400" y="0" type="line"/>
      <point x="400" y="100" type="line"/>
      <point x="300" y="100" type="line"/>
    </contour>
    <contour>
      <point x="100" y="100" type="line"/>
      <point x="200" y="100" type="line"/>
      <point x="144" y="100"/>
      <point x="100" y="144"/>
      <point x="100" y="200" type="curve"/>
    </contour>
    <contour>
      <point x="200" y="100" type="line"/>
      <point x="300" y="100" type="line"/>
      <point x="300" y="200" type="line"/>
      <point x="200" y="200" type="line"/>
    </contour>
    <contour>
      <point x="300" y="100" type="line"/>
      <point x="400" y="100" type="line"/>
      <point x="400" y="200" type="line"/>
      <point x="300" y="200" type="line"/>
    </contour>
    <contour>
      <point x="400" y="100" type="line"/>
      <point x="500" y="100" type="line"/>
      <point x="500" y="200" type="line"/>
      <point x="400" y="200" type="line"/>
    </contour>
    <contour>
      <point x="600" y="100" type="line"/>
      <point x="600" y="200" type="line"/>
      <point x="600" y="144"/>
      <point x="556" y="100"/>
      <point x="500" y="100" type="curve"/>
    </contour>
    <contour>
      <point x="500" y="200" type="line"/>
      <point x="600" y="200" type="line"/>
      <point x="600" y="300" type="line"/>
      <point x="500" y="300" type="line"/>
    </contour>
    <contour>
      <point x="500" y="300" type="line"/>
      <point x="600" y="300" type="line"/>
      <point x="600" y="400" type="line"/>
      <point x="500" y="400" type="line"/>
    </contour>
    <contour>
      <point x="100" y="400" type="line"/>
      <point x="200" y="400" type="line"/>
      <point x="144" y="400"/>
      <point x="100" y="444"/>
      <point x="100" y="500" type="curve"/>
    </contour>
    <contour>
      <point x="200" y="400" type="line"/>
      <point x="300" y="400" type="line"/>
      <point x="300" y="500" type="line"/>
      <point x="200" y="500" type="line"/>
    </contour>
    <contour>
      <point x="300" y="400" type="line"/>
      <point x="400" y="400" type="line"/>
      <point x="400" y="500" type="line"/>
      <point x="300" y="500" type="line"/>
    </contour>
    <contour>
      <point x="400" y="400" type="line"/>
      <point x="500" y="400" type="line"/>
      <point x="500" y="500" type="line"/>
      <point x="400" y="500" type="line"/>
    </contour>
    <contour>
      <point x="600" y="500" type="line"/>
      <point x="500" y="500" type="line"/>
      <point x="556" y="500"/>
      <point x="600" y="456"/>
      <point x="600" y="400" type="curve"/>
    </contour>
    <contour>
      <point x="100" y="600" type="line"/>
      <point x="100" y="500" type="line"/>
      <point x="100" y="556"/>
      <point x="144" y="600"/>
      <point x="200" y="600" type="curve"/>
    </contour>
    <contour>
      <point x="200" y="600" type="line"/>
      <point x="300" y="600" type="line"/>
      <point x="300" y="700" type="line"/>
      <point x="200" y="700" type="line"/>
    </contour>
    <contour>
      <point x="300" y="600" type="line"/>
      <point x="400" y="600" type="line"/>
      <point x="400" y="700" type="line"/>
      <point x="300" y="700" type="line"/>
    </contour>
    <contour>
      <point x="400" y="600" type="line"/>
      <point x="500" y="600" type="line"/>
      <point x="500" y="700" type="line"/>
      <point x="400" y="700" type="line"/>
    </contour>
    <contour>
      <point x="600" y="600" type="line"/>
      <point x="600" y="700" type="line"/>
      <point x="600" y="644"/>
      <point x="556" y="600"/>
      <point x="500" y="600" type="curve"/>
    </contour>
    <contour>
      <point x="300" y="700" type="line"/>
      <point x="400" y="700" type="line"/>
      <point x="400" y="800" type="line"/>
      <point x="300" y="800" type="line"/>
    </contour>
  </outline>
</glyph>
<glyph name="percent" format="2">
  <advance width="1100"/>
  <unicode hex="0025"/>
  <outline>
    <contour>
      <point x="300" y="0" type="line"/>
      <point x="400" y="0" type="line"/>
      <point x="400" y="100" type="line"/>
      <point x="300" y="100" type="line"/>
    </contour>
    <contour>
      <point x="800" y="0" type="line"/>
      <point x="900" y="0" type="line"/>
      <point x="844" y="0"/>
      <point x="800" y="44"/>
      <point x="800" y="100" type="curve"/>
    </contour>
    <contour>
      <point x="1000" y="0" type="line"/>
      <point x="1000" y="100" type="line"/>
      <point x="1000" y="44"/>
      <point x="956" y="0"/>
      <point x="900" y="0" type="curve"/>
    </contour>
    <contour>
      <point x="300" y="100" type="line"/>
      <point x="400" y="100" type="line"/>
      <point x="400" y="200" type="line"/>
      <point x="300" y="200" type="line"/>
    </contour>
    <contour>
      <point x="500" y="100" type="line"/>
      <point x="500" y="200" type="line"/>
      <point x="500" y="144"/>
      <point x="456" y="100"/>
      <point x="400" y="100" type="curve"/>
    </contour>
    <contour>
      <point x="700" y="100" type="line"/>
      <point x="800" y="100" type="line"/>
      <point x="800" y="200" type="line"/>
      <point x="700" y="200" type="line"/>
    </contour>
    <contour>
      <point x="900" y="100" type="line"/>
      <point x="1000" y="100" type="line"/>
      <point x="1000" y="200" type="line"/>
      <point x="900" y="200" type="line"/>
    </contour>
    <contour>
      <point x="400" y="200" type="line"/>
      <point x="500" y="200" type="line"/>
      <point x="500" y="300" type="line"/>
      <point x="400" y="300" type="line"/>
    </contour>
    <contour>
      <point x="700" y="300" type="line"/>
      <point x="700" y="200" type="line"/>
      <point x="700" y="256"/>
      <point x="744" y="300"/>
      <point x="800" y="300" type="curve"/>
    </contour>
    <contour>
      <point x="900" y="300" type="line"/>
      <point x="800" y="300" type="line"/>
      <point x="856" y="300"/>
      <point x="900" y="256"/>
      <point x="900" y="200" type="curve"/>
    </contour>
    <contour>
      <point x="400" y="400" type="line"/>
      <point x="400" y="300" type="line"/>
      <point x="400" y="356"/>
      <point x="444" y="400"/>
      <point x="500" y="400" type="curve"/>
    </contour>
    <contour>
      <point x="500" y="300" type="line"/>
      <point x="600" y="300" type="line"/>
      <point x="600" y="400" type="line"/>
      <point x="500" y="400" type="line"/>
    </contour>
    <contour>
      <point x="500" y="400" type="line"/>
      <point x="600" y="400" type="line"/>
      <point x="600" y="500" type="line"/>
      <point x="500" y="500" type="line"/>
    </contour>
    <contour>
      <point x="700" y="400" type="line"/>
      <point x="700" y="500" type="line"/>
      <point x="700" y="444"/>
      <point x="656" y="400"/>
      <point x="600" y="400" type="curve"/>
    </contour>
    <contour>
      <point x="200" y="500" type="line"/>
      <point x="300" y="500" type="line"/>
      <point x="244" y="500"/>
      <point x="200" y="544"/>
      <point x="200" y="600" type="curve"/>
    </contour>
    <contour>
      <point x="400" y="500" type="line"/>
      <point x="400" y="600" type="line"/>
      <point x="400" y="544"/>
      <point x="356" y="500"/>
      <point x="300" y="500" type="curve"/>
    </contour>
    <contour>
      <point x="600" y="500" type="line"/>
      <point x="700" y="500" type="line"/>
      <point x="700" y="600" type="line"/>
      <point x="600" y="600" type="line"/>
    </contour>
    <contour>
      <point x="100" y="600" type="line"/>
      <point x="200" y="600" type="line"/>
      <point x="200" y="700" type="line"/>
      <point x="100" y="700" type="line"/>
    </contour>
    <contour>
      <point x="300" y="600" type="line"/>
      <point x="400" y="600" type="line"/>
      <point x="400" y="700" type="line"/>
      <point x="300" y="700" type="line"/>
    </contour>
    <contour>
      <point x="600" y="700" type="line"/>
      <point x="600" y="600" type="line"/>
      <point x="600" y="656"/>
      <point x="644" y="700"/>
      <point x="700" y="700" type="curve"/>
    </contour>
    <contour>
      <point x="700" y="600" type="line"/>
      <point x="800" y="600" type="line"/>
      <point x="800" y="700" type="line"/>
      <point x="700" y="700" type="line"/>
    </contour>
    <contour>
      <point x="100" y="800" type="line"/>
      <point x="100" y="700" type="line"/>
      <point x="100" y="756"/>
      <point x="144" y="800"/>
      <point x="200" y="800" type="curve"/>
    </contour>
    <contour>
      <point x="300" y="800" type="line"/>
      <point x="200" y="800" type="line"/>
      <point x="256" y="800"/>
      <point x="300" y="756"/>
      <point x="300" y="700" type="curve"/>
    </contour>
    <contour>
      <point x="700" y="700" type="line"/>
      <point x="800" y="700" type="line"/>
      <point x="800" y="800" type="line"/>
      <point x="700" y="800" type="line"/>
    </contour>
  </outline>
</glyph>
<glyph name="ampersand" format="2">
  <advance width="900"/>
  <unicode hex="0026"/>
  <outline>
    <contour>
      <point x="200" y="0" type="line"/>
      <point x="300" y="0" type="line"/>
      <point x="244" y="0"/>
      <point x="200" y="44"/>
      <point x="200" y="100" type="curve"/>
    </contour>
    <contour>
      <point x="300" y="0" type="line"/>
      <point x="400" y="0" type="line"/>
      <point x="400" y="100" type="line"/>
      <point x="300" y="100" type="line"/>
    </contour>
    <contour>
      <point x="500" y="0" type="line"/>
      <point x="500" y="100" type="line"/>
      <point x="500" y="44"/>
      <point x="456" y="0"/>
      <point x="400" y="0" type="curve"/>
    </contour>
    <contour>
      <point x="600" y="0" type="line"/>
      <point x="700" y="0" type="line"/>
      <point x="644" y="0"/>
      <point x="600" y="44"/>
      <point x="600" y="100" type="curve"/>
    </contour>
    <contour>
      <point x="700" y="0" type="line"/>
      <point x="800" y="0" type="line"/>
      <point x="800" y="100" type="line"/>
      <point x="700" y="100" type="line"/>
    </contour>
    <contour>
      <point x="100" y="100" type="line"/>
      <point x="200" y="100" type="line"/>
      <point x="200" y="200" type="line"/>
      <point x="100" y="200" type="line"/>
    </contour>
    <contour>
      <point x="400" y="100" type="line"/>
      <point x="500" y="100" type="line"/>
      <point x="500" y="200" type="line"/>
      <point x="400" y="200" type="line"/>
    </contour>
    <contour>
      <point x="600" y="100" type="line"/>
      <point x="700" y="100" type="line"/>
      <point x="700" y="200" type="line"/>
      <point x="600" y="200" type="line"/>
    </contour>
    <contour>
      <point x="100" y="200" type="line"/>
      <point x="200" y="200" type="line"/>
      <point x="200" y="300" type="line"/>
      <point x="100" y="300" type="line"/>
    </contour>
    <contour>
      <point x="400" y="300" type="line"/>
      <point x="400" y="200" type="line"/>
      <point x="400" y="256"/>
      <point x="444" y="300"/>
      <point x="500" y="300" type="curve"/>
    </contour>
    <contour>
      <point x="500" y="200" type="line"/>
      <point x="600" y="200" type="line"/>
      <point x="600" y="300" type="line"/>
      <point x="500" y="300" type="line"/>
    </contour>
    <contour>
      <point x="600" y="200" type="line"/>
      <point x="700" y="200" type="line"/>
      <point x="700" y="300" type="line"/>
      <point x="600" y="300" type="line"/>
    </contour>
    <contour>
      <point x="100" y="400" type="line"/>
      <point x="100" y="300" type="line"/>
      <point x="100" y="356"/>
      <point x="144" y="400"/>
      <point x="200" y="400" type="curve"/>
    </contour>
    <contour>
      <point x="600" y="300" type="line"/>
      <point x="700" y="300" type="line"/>
      <point x="700" y="400" type="line"/>
      <point x="600" y="400" type="line"/>
    </contour>
    <contour>
      <point x="200" y="400" type="line"/>
      <point x="300" y="400" type="line"/>
      <point x="300" y="500" type="line"/>
      <point x="200" y="500" type="line"/>
    </contour>
    <contour>
      <point x="300" y="400" type="line"/>
      <point x="400" y="400" type="line"/>
      <point x="400" y="500" type="line"/>
      <point x="300" y="500" type="line"/>
    </contour>
    <contour>
      <point x="400" y="400" type="line"/>
      <point x="500" y="400" type="line"/>
      <point x="500" y="500" type="line"/>
      <point x="400" y="500" type="line"/>
    </contour>
    <contour>
      <point x="500" y="400" type="line"/>
      <point x="600" y="400" type="line"/>
      <point x="600" y="500" type="line"/>
      <point x="500" y="500" type="line"/>
    </contour>
    <contour>
      <point x="600" y="400" type="line"/>
      <point x="700" y="400" type="line"/>
      <point x="700" y="500" type="line"/>
      <point x="600" y="500" type="line"/>
    </contour>
    <contour>
      <point x="700" y="400" type="line"/>
      <point x="800" y="400" type="line"/>
      <point x="800" y="500" type="line"/>
      <point x="700" y="500" type="line"/>
    </contour>
    <contour>
      <point x="100" y="500" type="line"/>
      <point x="200" y="500" type="line"/>
      <point x="144" y="500"/>
      <point x="100" y="544"/>
      <point x="100" y="600" type="curve"/>
    </contour>
    <contour>
      <point x="600" y="600" type="line"/>
      <point x="600" y="500" type="line"/>
      <point x="600" y="556"/>
      <point x="644" y="600"/>
      <point x="700" y="600" type="curve"/>
    </contour>
    <contour>
      <point x="100" y="600" type="line"/>
      <point x="200" y="600" type="line"/>
      <point x="200" y="700" type="line"/>
      <point x="100" y="700" type="line"/>
    </contour>
    <contour>
      <point x="200" y="800" type="line"/>
      <point x="200" y="700" type="line"/>
      <point x="200" y="756"/>
      <point x="244" y="800"/>
      <point x="300" y="800" type="curve"/>
    </contour>
    <contour>
      <point x="300" y="700" type="line"/>
      <point x="400" y="700" type="line"/>
      <point x="400" y="800" type="line"/>
      <point x="300" y="800" type="line"/>
    </contour>
    <contour>
      <point x="400" y="700" type="line"/>
      <point x="500" y="700" type="line"/>
      <point x="500" y="800" type="line"/>
      <point x="400" y="800" type="line"/>
    </contour>
  </outline>
</glyph>
<glyph name="parenleft" format="2">
  <advance width="500"/>
  <unicode hex="0028"/>
  <outline>
    <contour>
      <point x="200" y="0" type="line"/>
      <point x="300" y="0" type="line"/>
      <point x="244" y="0"/>
      <point x="200" y="44"/>
      <point x="200" y="100" type="curve"/>
    </contour>
    <contour>
      <point x="300" y="0" type="line"/>
      <point x="400" y="0" type="line"/>
      <point x="400" y="100" type="line"/>
      <point x="300" y="100" type="line"/>
    </contour>
    <contour>
      <point x="100" y="100" type="line"/>
      <point x="200" y="100" type="line"/>
      <point x="144" y="100"/>
      <point x="100" y="144"/>
      <point x="100" y="200" type="curve"/>
    </contour>
    <contour>
      <point x="100" y="200" type="line"/>
      <point x="200" y="200" type="line"/>
      <point x="200" y="300" type="line"/>
      <point x="100" y="300" type="line"/>
    </contour>
    <contour>
      <point x="100" y="300" type="line"/>
      <point x="200" y="300" type="line"/>
      <point x="200" y="400" type="line"/>
      <point x="100" y="400" type="line"/>
    </contour>
    <contour>
      <point x="100" y="400" type="line"/>
      <point x="200" y="400" type="line"/>
      <point x="200" y="500" type="line"/>
      <point x="100" y="500" type="line"/>
    </contour>
    <contour>
      <point x="100" y="500" type="line"/>
      <point x="200" y="500" type="line"/>
      <point x="200" y="600" type="line"/>
      <point x="100" y="600" type="line"/>
    </contour>
    <contour>
      <point x="100" y="700" type="line"/>
      <point x="100" y="600" type="line"/>
      <point x="100" y="656"/>
      <point x="144" y="700"/>
      <point x="200" y="700" type="curve"/>
    </contour>
    <contour>
      <point x="200" y="800" type="line"/>
      <point x="200" y="700" type="line"/>
      <point x="200" y="756"/>
      <point x="244" y="800"/>
      <point x="300" y="800" type="curve"/>
    </contour>
    <contour>
      <point x="300" y="700" type="line"/>
      <point x="400" y="700" type="line"/>
      <point x="400" y="800" type="line"/>
      <point x="300" y="800" type="line"/>
    </contour>
  </outline>
</glyph>
<glyph name="parenright" format="2">
  <advance width="500"/>
  <unicode hex="0029"/>
  <outline>
    <contour>
      <point x="100" y="0" type="line"/>
      <point x="200" y="0" type="line"/>
      <point x="200" y="100" type="line"/>
      <point x="100" y="100" type="line"/>
    </contour>
    <contour>
      <point x="300" y="0" type="line"/>
      <point x="300" y="100" type="line"/>
      <point x="300" y="44"/>
      <point x="256" y="0"/>
      <point x="200" y="0" type="curve"/>
    </contour>
    <contour>
      <point x="400" y="100" type="line"/>
      <point x="400" y="200" type="line"/>
      <point x="400" y="144"/>
      <point x="356" y="100"/>
      <point x="300" y="100" type="curve"/>
    </contour>
    <contour>
      <point x="300" y="200" type="line"/>
      <point x="400" y="200" type="line"/>
      <point x="400" y="300" type="line"/>
      <point x="300" y="300" type="line"/>
    </contour>
    <contour>
      <point x="300" y="300" type="line"/>
      <point x="400" y="300" type="line"/>
      <point x="400" y="400" type="line"/>
      <point x="300" y="400" type="line"/>
    </contour>
    <contour>
      <point x="300" y="400" type="line"/>
      <point x="400" y="400" type="line"/>
      <point x="400" y="500" type="line"/>
      <point x="300" y="500" type="line"/>
    </contour>
    <contour>
      <point x="300" y="500" type="line"/>
      <point x="400" y="500" type="line"/>
      <point x="400" y="600" type="line"/>
      <point x="300" y="600" type="line"/>
    </contour>
    <contour>
      <point x="400" y="700" type="line"/>
      <point x="300" y="700" type="line"/>
      <point x="356" y="700"/>
      <point x="400" y="656"/>
      <point x="400" y="600" type="curve"/>
    </contour>
    <contour>
      <point x="100" y="700" type="line"/>
      <point x="200" y="700" type="line"/>
      <point x="200" y="800" type="line"/>
      <point x="100" y="800" type="line"/>
    </contour>
    <contour>
      <point x="300" y="800" type="line"/>
      <point x="200" y="800" type="line"/>
      <point x="256" y="800"/>
      <point x="300" y="756"/>
      <point x="300" y="700" type="curve"/>
    </contour>
  </outline>
</glyph>
<glyph name="asterisk" format="2">
  <advance width="700"/>
  <unicode hex="002A"/>
  <outline>
    <contour>
      <point x="100" y="400" type="line"/>
      <point x="200" y="400" type="line"/>
      <point x="200" y="500" type="line"/>
      <point x="100" y="500" type="line"/>
    </contour>
    <contour>
      <point x="300" y="400" type="line"/>
      <point x="400" y="400" type="line"/>
      <point x="400" y="500" type="line"/>
      <point x="300" y="500" type="line"/>
    </contour>
    <contour>
      <point x="500" y="400" type="line"/>
      <point x="600" y="400" type="line"/>
      <point x="600" y="500" type="line"/>
      <point x="500" y="500" type="line"/>
    </contour>
    <contour>
      <point x="200" y="500" type="line"/>
      <point x="300" y="500" type="line"/>
      <point x="300" y="600" type="line"/>
      <point x="200" y="600" type="line"/>
    </contour>
    <contour>
      <point x="300" y="500" type="line"/>
      <point x="400" y="500" type="line"/>
      <point x="400" y="600" type="line"/>
      <point x="300" y="600" type="line"/>
    </contour>
    <contour>
      <point x="400" y="500" type="line"/>
      <point x="500" y="500" type="line"/>
      <point x="500" y="600" type="line"/>
      <point x="400" y="600" type="line"/>
    </contour>
    <contour>
      <point x="100" y="600" type="line"/>
      <point x="200" y="600" type="line"/>
      <point x="200" y="700" type="line"/>
      <point x="100" y="700" type="line"/>
    </contour>
    <contour>
      <point x="200" y="600" type="line"/>
      <point x="300" y="600" type="line"/>
      <point x="300" y="700" type="line"/>
      <point x="200" y="700" type="line"/>
    </contour>
    <contour>
      <point x="300" y="600" type="line"/>
      <point x="400" y="600" type="line"/>
      <point x="400" y="700" type="line"/>
      <point x="300" y="700" type="line"/>
    </contour>
    <contour>
      <point x="400" y="600" type="line"/>
      <point x="500" y="600" type="line"/>
      <point x="500" y="700" type="line"/>
      <point x="400" y="700" type="line"/>
    </contour>
    <contour>
      <point x="500" y="600" type="line"/>
      <point x="600" y="600" type="line"/>
      <point x="600" y="700" type="line"/>
      <point x="500" y="700" type="line"/>
    </contour>
    <contour>
      <point x="200" y="700" type="line"/>
      <point x="300" y="700" type="line"/>
      <point x="300" y="800" type="line"/>
      <point x="200" y="800" type="line"/>
    </contour>
    <contour>
      <point x="300" y="700" type="line"/>
      <point x="400" y="700" type="line"/>
      <point x="400" y="800" type="line"/>
      <point x="300" y="800" type="line"/>
    </contour>
    <contour>
      <point x="400" y="700" type="line"/>
      <point x="500" y="700" type="line"/>
      <point x="500" y="800" type="line"/>
      <point x="400" y="800" type="line"/>
    </contour>
    <contour>
      <point x="100" y="800" type="line"/>
      <point x="200" y="800" type="line"/>
      <point x="200" y="900" type="line"/>
      <point x="100" y="900" type="line"/>
    </contour>
    <contour>
      <point x="300" y="800" type="line"/>
      <point x="400" y="800" type="line"/>
      <point x="400" y="900" type="line"/>
      <point x="300" y="900" type="line"/>
    </contour>
    <contour>
      <point x="500" y="800" type="line"/>
      <point x="600" y="800" type="line"/>
      <point x="600" y="900" type="line"/>
      <point x="500" y="900" type="line"/>
    </contour>
  </outline>
</glyph>
<glyph name="plus" format="2">
  <advance width="500"/>
  <unicode hex="002B"/>
  <outline>
    <contour>
      <point x="200" y="200" type="line"/>
      <point x="300" y="200" type="line"/>
      <point x="300" y="300" type="line"/>
      <point x="200" y="300" type="line"/>
    </contour>
    <contour>
      <point x="100" y="300" type="line"/>
      <point x="200" y="300" type="line"/>
      <point x="200" y="400" type="line"/>
      <point x="100" y="400" type="line"/>
    </contour>
    <contour>
      <point x="200" y="300" type="line"/>
      <point x="300" y="300" type="line"/>
      <point x="300" y="400" type="line"/>
      <point x="200" y="400" type="line"/>
    </contour>
    <contour>
      <point x="300" y="300" type="line"/>
      <point x="400" y="300" type="line"/>
      <point x="400" y="400" type="line"/>
      <point x="300" y="400" type="line"/>
    </contour>
    <contour>
      <point x="200" y="400" type="line"/>
      <point x="300" y="400" type="line"/>
      <point x="300" y="500" type="line"/>
      <point x="200" y="500" type="line"/>
    </contour>
  </outline>
</glyph>
<glyph name="hyphen" format="2">
  <advance width="500"/>
  <unicode hex="002D"/>
  <outline>
    <contour>
      <point x="100" y="300" type="line"/>
      <point x="200" y="300" type="line"/>
      <point x="200" y="400" type="line"/>
      <point x="100" y="400" type="line"/>
    </contour>
    <contour>
      <point x="200" y="300" type="line"/>
      <point x="300" y="300" type="line"/>
      <point x="300" y="400" type="line"/>
      <point x="200" y="400" type="line"/>
    </contour>
    <contour>
      <point x="300" y="300" type="line"/>
      <point x="400" y="300" type="line"/>
      <point x="400" y="400" type="line"/>
      <point x="300" y="400" type="line"/>
    </contour>
  </outline>
</glyph>
<glyph name="period" format="2">
  <advance width="300"/>
  <unicode hex="002E"/>
  <outline>
    <contour>
      <point x="100" y="0" type="line"/>
      <point x="200" y="0" type="line"/>
      <point x="200" y="100" type="line"/>
      <point x="100" y="100" type="line"/>
    </contour>
  </outline>
</glyph>
<glyph name="slash" format="2">
  <advance width="1000"/>
  <unicode hex="002F"/>
  <outline>
    <contour>
      <point x="100" y="0" type="line"/>
      <point x="200" y="0" type="line"/>
      <point x="200" y="100" type="line"/>
      <point x="100" y="100" type="line"/>
    </contour>
    <contour>
      <point x="200" y="100" type="line"/>
      <point x="300" y="100" type="line"/>
      <point x="300" y="200" type="line"/>
      <point x="200" y="200" type="line"/>
    </contour>
    <contour>
      <point x="300" y="200" type="line"/>
      <point x="400" y="200" type="line"/>
      <point x="400" y="300" type="line"/>
      <point x="300" y="300" type="line"/>
    </contour>
    <contour>
      <point x="400" y="300" type="line"/>
      <point x="500" y="300" type="line"/>
      <point x="500" y="400" type="line"/>
      <point x="400" y="400" type="line"/>
    </contour>
    <contour>
      <point x="500" y="400" type="line"/>
      <point x="600" y="400" type="line"/>
      <point x="600" y="500" type="line"/>
      <point x="500" y="500" type="line"/>
    </contour>
    <contour>
      <point x="600" y="500" type="line"/>
      <point x="700" y="500" type="line"/>
      <point x="700" y="600" type="line"/>
      <point x="600" y="600" type="line"/>
    </contour>
    <contour>
      <point x="700" y="600" type="line"/>
      <point x="800" y="600" type="line"/>
      <point x="800" y="700" type="line"/>
      <point x="700" y="700" type="line"/>
    </contour>
    <contour>
      <point x="800" y="700" type="line"/>
      <point x="900" y="700" type="line"/>
      <point x="900" y="800" type="line"/>
      <point x="800" y="800" type="line"/>
    </contour>
  </outline>
</glyph>
<glyph name="one" format="2">
  <advance width="700"/>
  <unicode hex="0031"/>
  <outline>
    <contour>
      <point x="100" y="0" type="line"/>
      <point x="200" y="0" type="line"/>
      <point x="200" y="100" type="line"/>
      <point x="100" y="100" type="line"/>
    </contour>
    <contour>
      <point x="200" y="0" type="line"/>
      <point x="300" y="0" type="line"/>
      <point x="300" y="100" type="line"/>
      <point x="200" y="100" type="line"/>
    </contour>
    <contour>
      <point x="300" y="0" type="line"/>
      <point x="400" y="0" type="line"/>
      <point x="344" y="0"/>
      <point x="300" y="44"/>
      <point x="300" y="100" type="curve"/>
    </contour>
    <contour>
      <point x="400" y="0" type="line"/>
      <point x="500" y="0" type="line"/>
      <point x="500" y="100" type="line"/>
      <point x="400" y="100" type="line"/>
    </contour>
    <contour>
      <point x="500" y="0" type="line"/>
      <point x="600" y="0" type="line"/>
      <point x="600" y="100" type="line"/>
      <point x="500" y="100" type="line"/>
    </contour>
    <contour>
      <point x="300" y="100" type="line"/>
      <point x="400" y="100" type="line"/>
      <point x="400" y="200" type="line"/>
      <point x="300" y="200" type="line"/>
    </contour>
    <contour>
      <point x="300" y="200" type="line"/>
      <point x="400" y="200" type="line"/>
      <point x="400" y="300" type="line"/>
      <point x="300" y="300" type="line"/>
    </contour>
    <contour>
      <point x="300" y="300" type="line"/>
      <point x="400" y="300" type="line"/>
      <point x="400" y="400" type="line"/>
      <point x="300" y="400" type="line"/>
    </contour>
    <contour>
      <point x="300" y="400" type="line"/>
      <point x="400" y="400" type="line"/>
      <point x="400" y="500" type="line"/>
      <point x="300" y="500" type="line"/>
    </contour>
    <contour>
      <point x="300" y="500" type="line"/>
      <point x="400" y="500" type="line"/>
      <point x="400" y="600" type="line"/>
      <point x="300" y="600" type="line"/>
    </contour>
    <contour>
      <point x="300" y="600" type="line"/>
      <point x="400" y="600" type="line"/>
      <point x="400" y="700" type="line"/>
      <point x="300" y="700" type="line"/>
    </contour>
    <contour>
      <point x="100" y="700" type="line"/>
      <point x="200" y="700" type="line"/>
      <point x="200" y="800" type="line"/>
      <point x="100" y="800" type="line"/>
    </contour>
    <contour>
      <point x="200" y="700" type="line"/>
      <point x="300" y="700" type="line"/>
      <point x="300" y="800" type="line"/>
      <point x="200" y="800" type="line"/>
    </contour>
    <contour>
      <point x="400" y="800" type="line"/>
      <point x="300" y="800" type="line"/>
      <point x="356" y="800"/>
      <point x="400" y="756"/>
      <point x="400" y="700" type="curve"/>
    </contour>
  </outline>
</glyph>
<glyph name="three" format="2">
  <advance width="700"/>
  <unicode hex="0033"/>
  <outline>
    <contour>
      <point x="100" y="0" type="line"/>
      <point x="200" y="0" type="line"/>
      <point x="200" y="100" type="line"/>
      <point x="100" y="100" type="line"/>
    </contour>
    <contour>
      <point x="200" y="0" type="line"/>
      <point x="300" y="0" type="line"/>
      <point x="300" y="100" type="line"/>
      <point x="200" y="100" type="line"/>
    </contour>
    <contour>
      <point x="300" y="0" type="line"/>
      <point x="400" y="0" type="line"/>
      <point x="400" y="100" type="line"/>
      <point x="300" y="100" type="line"/>
    </contour>
    <contour>
      <point x="500" y="0" type="line"/>
      <point x="500" y="100" type="line"/>
      <point x="500" y="44"/>
      <point x="456" y="0"/>
      <point x="400" y="0" type="curve"/>
    </contour>
    <contour>
      <point x="100" y="100" type="line"/>
      <point x="200" y="100" type="line"/>
      <point x="200" y="200" type="line"/>
      <point x="100" y="200" type="line"/>
    </contour>
    <contour>
      <point x="500" y="100" type="line"/>
      <point x="600" y="100" type="line"/>
      <point x="600" y="200" type="line"/>
      <point x="500" y="200" type="line"/>
    </contour>
    <contour>
      <point x="500" y="200" type="line"/>
      <point x="600" y="200" type="line"/>
      <point x="600" y="300" type="line"/>
      <point x="500" y="300" type="line"/>
    </contour>
    <contour>
      <point x="600" y="400" type="line"/>
      <point x="500" y="400" type="line"/>
      <point x="556" y="400"/>
      <point x="600" y="356"/>
      <point x="600" y="300" type="curve"/>
    </contour>
    <contour>
      <point x="200" y="400" type="line"/>
      <point x="300" y="400" type="line"/>
      <point x="300" y="500" type="line"/>
      <point x="200" y="500" type="line"/>
    </contour>
    <contour>
      <point x="300" y="400" type="line"/>
      <point x="400" y="400" type="line"/>
      <point x="400" y="500" type="line"/>
      <point x="300" y="500" type="line"/>
    </contour>
    <contour>
      <point x="400" y="400" type="line"/>
      <point x="500" y="400" type="line"/>
      <point x="500" y="500" type="line"/>
      <point x="400" y="500" type="line"/>
    </contour>
    <contour>
      <point x="600" y="500" type="line"/>
      <point x="600" y="600" type="line"/>
      <point x="600" y="544"/>
      <point x="556" y="500"/>
      <point x="500" y="500" type="curve"/>
    </contour>
    <contour>
      <point x="100" y="600" type="line"/>
      <point x="200" y="600" type="line"/>
      <point x="200" y="700" type="line"/>
      <point x="100" y="700" type="line"/>
    </contour>
    <contour>
      <point x="500" y="600" type="line"/>
      <point x="600" y="600" type="line"/>
      <point x="600" y="700" type="line"/>
      <point x="500" y="700" type="line"/>
    </contour>
    <contour>
      <point x="100" y="700" type="line"/>
      <point x="200" y="700" type="line"/>
      <point x="200" y="800" type="line"/>
      <point x="100" y="800" type="line"/>
    </contour>
    <contour>
      <point x="200" y="700" type="line"/>
      <point x="300" y="700" type="line"/>
      <point x="300" y="800" type="line"/>
      <point x="200" y="800" type="line"/>
    </contour>
    <contour>
      <point x="300" y="700" type="line"/>
      <point x="400" y="700" type="line"/>
      <point x="400" y="800" type="line"/>
      <point x="300" y="800" type="line"/>
    </contour>
    <contour>
      <point x="400" y="700" type="line"/>
      <point x="500" y="700" type="line"/>
      <point x="500" y="800" type="line"/>
      <point x="400" y="800" type="line"/>
    </contour>
    <contour>
      <point x="500" y="700" type="line"/>
      <point x="600" y="700" type="line"/>
      <point x="600" y="800" type="line"/>
      <point x="500" y="800" type="line"/>
    </contour>
  </outline>
</glyph>
<glyph name="four" format="2">
  <advance width="700"/>
  <unicode hex="0034"/>
  <outline>
    <contour>
      <point x="300" y="0" type="line"/>
      <point x="400" y="0" type="line"/>
      <point x="400" y="100" type="line"/>
      <point x="300" y="100" type="line"/>
    </contour>
    <contour>
      <point x="400" y="0" type="line"/>
      <point x="500" y="0" type="line"/>
      <point x="500" y="100" type="line"/>
      <point x="400" y="100" type="line"/>
    </contour>
    <contour>
      <point x="500" y="0" type="line"/>
      <point x="600" y="0" type="line"/>
      <point x="600" y="100" type="line"/>
      <point x="500" y="100" type="line"/>
    </contour>
    <contour>
      <point x="400" y="100" type="line"/>
      <point x="500" y="100" type="line"/>
      <point x="500" y="200" type="line"/>
      <point x="400" y="200" type="line"/>
    </contour>
    <contour>
      <point x="500" y="300" type="line"/>
      <point x="400" y="300" type="line"/>
      <point x="456" y="300"/>
      <point x="500" y="256"/>
      <point x="500" y="200" type="curve"/>
    </contour>
    <contour>
      <point x="100" y="300" type="line"/>
      <point x="200" y="300" type="line"/>
      <point x="144" y="300"/>
      <point x="100" y="344"/>
      <point x="100" y="400" type="curve"/>
    </contour>
    <contour>
      <point x="200" y="300" type="line"/>
      <point x="300" y="300" type="line"/>
      <point x="300" y="400" type="line"/>
      <point x="200" y="400" type="line"/>
    </contour>
    <contour>
      <point x="300" y="300" type="line"/>
      <point x="400" y="300" type="line"/>
      <point x="400" y="400" type="line"/>
      <point x="300" y="400" type="line"/>
    </contour>
    <contour>
      <point x="400" y="300" type="line"/>
      <point x="500" y="300" type="line"/>
      <point x="500" y="400" type="line"/>
      <point x="400" y="400" type="line"/>
    </contour>
    <contour>
      <point x="500" y="300" type="line"/>
      <point x="600" y="300" type="line"/>
      <point x="600" y="400" type="line"/>
      <point x="500" y="400" type="line"/>
    </contour>
    <contour>
      <point x="100" y="400" type="line"/>
      <point x="200" y="400" type="line"/>
      <point x="200" y="500" type="line"/>
      <point x="100" y="500" type="line"/>
    </contour>
    <contour>
      <point x="400" y="400" type="line"/>
      <point x="500" y="400" type="line"/>
      <point x="444" y="400"/>
      <point x="400" y="444"/>
      <point x="400" y="500" type="curve"/>
    </contour>
    <contour>
      <point x="100" y="500" type="line"/>
      <point x="200" y="500" type="line"/>
      <point x="200" y="600" type="line"/>
      <point x="100" y="600" type="line"/>
    </contour>
    <contour>
      <point x="400" y="500" type="line"/>
      <point x="500" y="500" type="line"/>
      <point x="500" y="600" type="line"/>
      <point x="400" y="600" type="line"/>
    </contour>
    <contour>
      <point x="100" y="600" type="line"/>
      <point x="200" y="600" type="line"/>
      <point x="200" y="700" type="line"/>
      <point x="100" y="700" type="line"/>
    </contour>
    <contour>
      <point x="100" y="700" type="line"/>
      <point x="200" y="700" type="line"/>
      <point x="200" y="800" type="line"/>
      <point x="100" y="800" type="line"/>
    </contour>
  </outline>
</glyph>
<glyph name="six" format="2">
  <advance width="700"/>
  <unicode hex="0036"/>
  <outline>
    <contour>
      <point x="200" y="0" type="line"/>
      <point x="300" y="0" type="line"/>
      <point x="244" y="0"/>
      <point x="200" y="44"/>
      <point x="200" y="100" type="curve"/>
    </contour>
    <contour>
      <point x="300" y="0" type="line"/>
      <point x="400" y="0" type="line"/>
      <point x="400" y="100" type="line"/>
      <point x="300" y="100" type="line"/>
    </contour>
    <contour>
      <point x="500" y="0" type="line"/>
      <point x="500" y="100" type="line"/>
      <point x="500" y="44"/>
      <point x="456" y="0"/>
      <point x="400" y="0" type="curve"/>
    </contour>
    <contour>
      <point x="100" y="100" type="line"/>
      <point x="200" y="100" type="line"/>
      <point x="200" y="200" type="line"/>
      <point x="100" y="200" type="line"/>
    </contour>
    <contour>
      <point x="500" y="100" type="line"/>
      <point x="600" y="100" type="line"/>
      <point x="600" y="200" type="line"/>
      <point x="500" y="200" type="line"/>
    </contour>
    <contour>
      <point x="100" y="200" type="line"/>
      <point x="200" y="200" type="line"/>
      <point x="200" y="300" type="line"/>
      <point x="100" y="300" type="line"/>
    </contour>
    <contour>
      <point x="500" y="200" type="line"/>
      <point x="600" y="200" type="line"/>
      <point x="600" y="300" type="line"/>
      <point x="500" y="300" type="line"/>
    </contour>
    <contour>
      <point x="100" y="300" type="line"/>
      <point x="200" y="300" type="line"/>
      <point x="200" y="400" type="line"/>
      <point x="100" y="400" type="line"/>
    </contour>
    <contour>
      <point x="500" y="300" type="line"/>
      <point x="600" y="300" type="line"/>
      <point x="600" y="400" type="line"/>
      <point x="500" y="400" type="line"/>
    </contour>
    <contour>
      <point x="100" y="400" type="line"/>
      <point x="200" y="400" type="line"/>
      <point x="200" y="500" type="line"/>
      <point x="100" y="500" type="line"/>
    </contour>
    <contour>
      <point x="200" y="400" type="line"/>
      <point x="300" y="400" type="line"/>
      <point x="300" y="500" type="line"/>
      <point x="200" y="500" type="line"/>
    </contour>
    <contour>
      <point x="300" y="400" type="line"/>
      <point x="400" y="400" type="line"/>
      <point x="400" y="500" type="line"/>
      <point x="300" y="500" type="line"/>
    </contour>
    <contour>
      <point x="500" y="500" type="line"/>
      <point x="400" y="500" type="line"/>
      <point x="456" y="500"/>
      <point x="500" y="456"/>
      <point x="500" y="400" type="curve"/>
    </contour>
    <contour>
      <point x="100" y="500" type="line"/>
      <point x="200" y="500" type="line"/>
      <point x="200" y="600" type="line"/>
      <point x="100" y="600" type="line"/>
    </contour>
    <contour>
      <point x="100" y="600" type="line"/>
      <point x="200" y="600" type="line"/>
      <point x="200" y="700" type="line"/>
      <point x="100" y="700" type="line"/>
    </contour>
    <contour>
      <point x="400" y="600" type="line"/>
      <point x="500" y="600" type="line"/>
      <point x="444" y="600"/>
      <point x="400" y="644"/>
      <point x="400" y="700" type="curve"/>
    </contour>
    <contour>
      <point x="100" y="800" type="line"/>
      <point x="100" y="700" type="line"/>
      <point x="100" y="756"/>
      <point x="144" y="800"/>
      <point x="200" y="800" type="curve"/>
    </contour>
    <contour>
      <point x="200" y="700" type="line"/>
      <point x="300" y="700" type="line"/>
      <point x="300" y="800" type="line"/>
      <point x="200" y="800" type="line"/>
    </contour>
    <contour>
      <point x="300" y="700" type="line"/>
      <point x="400" y="700" type="line"/>
      <point x="400" y="800" type="line"/>
      <point x="300" y="800" type="line"/>
    </contour>
    <contour>
      <point x="400" y="700" type="line"/>
      <point x="500" y="700" type="line"/>
      <point x="500" y="800" type="line"/>
      <point x="400" y="800" type="line"/>
    </contour>
  </outline>
</glyph>
<glyph name="seven" format="2">
  <advance width="600"/>
  <unicode hex="0037"/>
  <outline>
    <contour>
      <point x="200" y="0" type="line"/>
      <point x="300" y="0" type="line"/>
      <point x="300" y="100" type="line"/>
      <point x="200" y="100" type="line"/>
    </contour>
    <contour>
      <point x="200" y="100" type="line"/>
      <point x="300" y="100" type="line"/>
      <point x="300" y="200" type="line"/>
      <point x="200" y="200" type="line"/>
    </contour>
    <contour>
      <point x="200" y="200" type="line"/>
      <point x="300" y="200" type="line"/>
      <point x="300" y="300" type="line"/>
      <point x="200" y="300" type="line"/>
    </contour>
    <contour>
      <point x="200" y="300" type="line"/>
      <point x="300" y="300" type="line"/>
      <point x="300" y="400" type="line"/>
      <point x="200" y="400" type="line"/>
    </contour>
    <contour>
      <point x="200" y="400" type="line"/>
      <point x="300" y="400" type="line"/>
      <point x="300" y="500" type="line"/>
      <point x="200" y="500" type="line"/>
    </contour>
    <contour>
      <point x="300" y="500" type="line"/>
      <point x="400" y="500" type="line"/>
      <point x="400" y="600" type="line"/>
      <point x="300" y="600" type="line"/>
    </contour>
    <contour>
      <point x="400" y="600" type="line"/>
      <point x="500" y="600" type="line"/>
      <point x="500" y="700" type="line"/>
      <point x="400" y="700" type="line"/>
    </contour>
    <contour>
      <point x="100" y="700" type="line"/>
      <point x="200" y="700" type="line"/>
      <point x="200" y="800" type="line"/>
      <point x="100" y="800" type="line"/>
    </contour>
    <contour>
      <point x="200" y="700" type="line"/>
      <point x="300" y="700" type="line"/>
      <point x="300" y="800" type="line"/>
      <point x="200" y="800" type="line"/>
    </contour>
    <contour>
      <point x="300" y="700" type="line"/>
      <point x="400" y="700" type="line"/>
      <point x="400" y="800" type="line"/>
      <point x="300" y="800" type="line"/>
    </contour>
    <contour>
      <point x="400" y="700" type="line"/>
      <point x="500" y="700" type="line"/>
      <point x="500" y="800" type="line"/>
      <point x="400" y="800" type="line"/>
    </contour>
  </outline>
</glyph>
<glyph name="nine" format="2">
  <advance width="700"/>
  <unicode hex="0039"/>
  <outline>
    <contour>
      <point x="100" y="0" type="line"/>
      <point x="200" y="0" type="line"/>
      <point x="200" y="100" type="line"/>
      <point x="100" y="100" type="line"/>
    </contour>
    <contour>
      <point x="200" y="0" type="line"/>
      <point x="300" y="0" type="line"/>
      <point x="300" y="100" type="line"/>
      <point x="200" y="100" type="line"/>
    </contour>
    <contour>
      <point x="300" y="0" type="line"/>
      <point x="400" y="0" type="line"/>
      <point x="400" y="100" type="line"/>
      <point x="300" y="100" type="line"/>
    </contour>
    <contour>
      <point x="500" y="0" type="line"/>
      <point x="500" y="100" type="line"/>
      <point x="500" y="44"/>
      <point x="456" y="0"/>
      <point x="400" y="0" type="curve"/>
    </contour>
    <contour>
      <point x="200" y="200" type="line"/>
      <point x="100" y="200" type="line"/>
      <point x="156" y="200"/>
      <point x="200" y="156"/>
      <point x="200" y="100" type="curve"/>
    </contour>
    <contour>
      <point x="500" y="100" type="line"/>
      <point x="600" y="100" type="line"/>
      <point x="600" y="200" type="line"/>
      <point x="500" y="200" type="line"/>
    </contour>
    <contour>
      <point x="500" y="200" type="line"/>
      <point x="600" y="200" type="line"/>
      <point x="600" y="300" type="line"/>
      <point x="500" y="300" type="line"/>
    </contour>
    <contour>
      <point x="500" y="300" type="line"/>
      <point x="600" y="300" type="line"/>
      <point x="600" y="400" type="line"/>
      <point x="500" y="400" type="line"/>
    </contour>
    <contour>
      <point x="200" y="400" type="line"/>
      <point x="300" y="400" type="line"/>
      <point x="244" y="400"/>
      <point x="200" y="444"/>
      <point x="200" y="500" type="curve"/>
    </contour>
    <contour>
      <point x="300" y="400" type="line"/>
      <point x="400" y="400" type="line"/>
      <point x="400" y="500" type="line"/>
      <point x="300" y="500" type="line"/>
    </contour>
    <contour>
      <point x="400" y="400" type="line"/>
      <point x="500" y="400" type="line"/>
      <point x="500" y="500" type="line"/>
      <point x="400" y="500" type="line"/>
    </contour>
    <contour>
      <point x="600" y="500" type="line"/>
      <point x="500" y="500" type="line"/>
      <point x="556" y="500"/>
      <point x="600" y="456"/>
      <point x="600" y="400" type="curve"/>
    </contour>
    <contour>
      <point x="100" y="500" type="line"/>
      <point x="200" y="500" type="line"/>
      <point x="200" y="600" type="line"/>
      <point x="100" y="600" type="line"/>
    </contour>
    <contour>
      <point x="500" y="500" type="line"/>
      <point x="600" y="500" type="line"/>
      <point x="600" y="600" type="line"/>
      <point x="500" y="600" type="line"/>
    </contour>
    <contour>
      <point x="100" y="600" type="line"/>
      <point x="200" y="600" type="line"/>
      <point x="200" y="700" type="line"/>
      <point x="100" y="700" type="line"/>
    </contour>
    <contour>
      <point x="500" y="600" type="line"/>
      <point x="600" y="600" type="line"/>
      <point x="600" y="700" type="line"/>
      <point x="500" y="700" type="line"/>
    </contour>
    <contour>
      <point x="200" y="800" type="line"/>
      <point x="200" y="700" type="line"/>
      <point x="200" y="756"/>
      <point x="244" y="800"/>
      <point x="300" y="800" type="curve"/>
    </contour>
    <contour>
      <point x="300" y="700" type="line"/>
      <point x="400" y="700" type="line"/>
      <point x="400" y="800" type="line"/>
      <point x="300" y="800" type="line"/>
    </contour>
    <contour>
      <point x="500" y="800" type="line"/>
      <point x="400" y="800" type="line"/>
      <point x="456" y="800"/>
      <point x="500" y="756"/>
      <point x="500" y="700" type="curve"/>
    </contour>
  </outline>
</glyph>
<glyph name="colon" format="2">
  <advance width="300"/>
  <unicode hex="003A"/>
  <outline>
    <contour>
      <point x="100" y="0" type="line"/>
      <point x="200" y="0" type="line"/>
      <point x="200" y="100" type="line"/>
      <point x="100" y="100" type="line"/>
    </contour>
    <contour>
      <point x="100" y="500" type="line"/>
      <point x="200" y="500" type="line"/>
      <point x="200" y="600" type="line"/>
      <point x="100" y="600" type="line"/>
    </contour>
  </outline>
</glyph>
<glyph name="semicolon" format="2">
  <advance width="400"/>
  <unicode hex="003B"/>
  <outline>
    <contour>
      <point x="100" y="-200" type="line"/>
      <point x="200" y="-200" type="line"/>
      <point x="200" y="-100" type="line"/>
      <point x="100" y="-100" type="line"/>
    </contour>
    <contour>
      <point x="200" y="-200" type="line"/>
      <point x="300" y="-200" type="line"/>
      <point x="300" y="-100" type="line"/>
      <point x="200" y="-100" type="line"/>
    </contour>
    <contour>
      <point x="200" y="-100" type="line"/>
      <point x="300" y="-100" type="line"/>
      <point x="300" y="0" type="line"/>
      <point x="200" y="0" type="line"/>
    </contour>
    <contour>
      <point x="200" y="0" type="line"/>
      <point x="300" y="0" type="line"/>
      <point x="300" y="100" type="line"/>
      <point x="200" y="100" type="line"/>
    </contour>
    <contour>
      <point x="200" y="400" type="line"/>
      <point x="300" y="400" type="line"/>
      <point x="300" y="500" type="line"/>
      <point x="200" y="500" type="line"/>
    </contour>
  </outline>
</glyph>
<glyph name="equal" format="2">
  <advance width="500"/>
  <unicode hex="003D"/>
  <outline>
    <contour>
      <point x="100" y="0" type="line"/>
      <point x="200" y="0" type="line"/>
      <point x="200" y="100" type="line"/>
      <point x="100" y="100" type="line"/>
    </contour>
    <contour>
      <point x="200" y="0" type="line"/>
      <point x="300" y="0" type="line"/>
      <point x="300" y="100" type="line"/>
      <point x="200" y="100" type="line"/>
    </contour>
    <contour>
      <point x="300" y="0" type="line"/>
      <point x="400" y="0" type="line"/>
      <point x="400" y="100" type="line"/>
      <point x="300" y="100" type="line"/>
    </contour>
    <contour>
      <point x="100" y="300" type="line"/>
      <point x="200" y="300" type="line"/>
      <point x="200" y="400" type="line"/>
      <point x="100" y="400" type="line"/>
    </contour>
    <contour>
      <point x="200" y="300" type="line"/>
      <point x="300" y="300" type="line"/>
      <point x="300" y="400" type="line"/>
      <point x="200" y="400" type="line"/>
    </contour>
    <contour>
      <point x="300" y="300" type="line"/>
      <point x="400" y="300" type="line"/>
      <point x="400" y="400" type="line"/>
      <point x="300" y="400" type="line"/>
    </contour>
  </outline>
</glyph>
<glyph name="at" format="2">
  <advance width="1000"/>
  <unicode hex="0040"/>
  <outline>
    <contour>
      <point x="200" y="-200" type="line"/>
      <point x="300" y="-200" type="line"/>
      <point x="244" y="-200"/>
      <point x="200" y="-156"/>
      <point x="200" y="-100" type="curve"/>
    </contour>
    <contour>
      <point x="300" y="-200" type="line"/>
      <point x="400" y="-200" type="line"/>
      <point x="400" y="-100" type="line"/>
      <point x="300" y="-100" type="line"/>
    </contour>
    <contour>
      <point x="400" y="-200" type="line"/>
      <point x="500" y="-200" type="line"/>
      <point x="500" y="-100" type="line"/>
      <point x="400" y="-100" type="line"/>
    </contour>
    <contour>
      <point x="500" y="-200" type="line"/>
      <point x="600" y="-200" type="line"/>
      <point x="600" y="-100" type="line"/>
      <point x="500" y="-100" type="line"/>
    </contour>
    <contour>
      <point x="600" y="-200" type="line"/>
      <point x="700" y="-200" type="line"/>
      <point x="700" y="-100" type="line"/>
      <point x="600" y="-100" type="line"/>
    </contour>
    <contour>
      <point x="700" y="-200" type="line"/>
      <point x="800" y="-200" type="line"/>
      <point x="800" y="-100" type="line"/>
      <point x="700" y="-100" type="line"/>
    </contour>
    <contour>
      <point x="800" y="-200" type="line"/>
      <point x="900" y="-200" type="line"/>
      <point x="900" y="-100" type="line"/>
      <point x="800" y="-100" type="line"/>
    </contour>
    <contour>
      <point x="100" y="-100" type="line"/>
      <point x="200" y="-100" type="line"/>
      <point x="200" y="0" type="line"/>
      <point x="100" y="0" type="line"/>
    </contour>
    <contour>
      <point x="100" y="0" type="line"/>
      <point x="200" y="0" type="line"/>
      <point x="200" y="100" type="line"/>
      <point x="100" y="100" type="line"/>
    </contour>
    <contour>
      <point x="400" y="0" type="line"/>
      <point x="500" y="0" type="line"/>
      <point x="444" y="0"/>
      <point x="400" y="44"/>
      <point x="400" y="100" type="curve"/>
    </contour>
    <contour>
      <point x="500" y="0" type="line"/>
      <point x="600" y="0" type="line"/>
      <point x="600" y="100" type="line"/>
      <point x="500" y="100" type="line"/>
    </contour>
    <contour>
      <point x="600" y="0" type="line"/>
      <point x="700" y="0" type="line"/>
      <point x="700" y="100" type="line"/>
      <point x="600" y="100" type="line"/>
    </contour>
    <contour>
      <point x="800" y="0" type="line"/>
      <point x="800" y="100" type="line"/>
      <point x="800" y="44"/>
      <point x="756" y="0"/>
      <point x="700" y="0" type="curve"/>
    </contour>
    <contour>
      <point x="100" y="100" type="line"/>
      <point x="200" y="100" type="line"/>
      <point x="200" y="200" type="line"/>
      <point x="100" y="200" type="line"/>
    </contour>
    <contour>
      <point x="300" y="100" type="line"/>
      <point x="400" y="100" type="line"/>
      <point x="400" y="200" type="line"/>
      <point x="300" y="200" type="line"/>
    </contour>
    <contour>
      <point x="600" y="100" type="line"/>
      <point x="700" y="100" type="line"/>
      <point x="700" y="200" type="line"/>
      <point x="600" y="200" type="line"/>
    </contour>
    <contour>
      <point x="800" y="100" type="line"/>
      <point x="900" y="100" type="line"/>
      <point x="900" y="200" type="line"/>
      <point x="800" y="200" type="line"/>
    </contour>
    <contour>
      <point x="100" y="200" type="line"/>
      <point x="200" y="200" type="line"/>
      <point x="200" y="300" type="line"/>
      <point x="100" y="300" type="line"/>
    </contour>
    <contour>
      <point x="300" y="200" type="line"/>
      <point x="400" y="200" type="line"/>
      <point x="400" y="300" type="line"/>
      <point x="300" y="300" type="line"/>
    </contour>
    <contour>
      <point x="600" y="200" type="line"/>
      <point x="700" y="200" type="line"/>
      <point x="700" y="300" type="line"/>
      <point x="600" y="300" type="line"/>
    </contour>
    <contour>
      <point x="800" y="200" type="line"/>
      <point x="900" y="200" type="line"/>
      <point x="900" y="300" type="line"/>
      <point x="800" y="300" type="line"/>
    </contour>
    <contour>
      <point x="100" y="300" type="line"/>
      <point x="200" y="300" type="line"/>
      <point x="200" y="400" type="line"/>
      <point x="100" y="400" type="line"/>
    </contour>
    <contour>
      <point x="300" y="400" type="line"/>
      <point x="300" y="300" type="line"/>
      <point x="300" y="356"/>
      <point x="344" y="400"/>
      <point x="400" y="400" type="curve"/>
    </contour>
    <contour>
      <point x="400" y="300" type="line"/>
      <point x="500" y="300" type="line"/>
      <point x="500" y="400" type="line"/>
      <point x="400" y="400" type="line"/>
    </contour>
    <contour>
      <point x="500" y="300" type="line"/>
      <point x="600" y="300" type="line"/>
      <point x="600" y="400" type="line"/>
      <point x="500" y="400" type="line"/>
    </contour>
    <contour>
      <point x="600" y="300" type="line"/>
      <point x="700" y="300" type="line"/>
      <point x="700" y="400" type="line"/>
      <point x="600" y="400" type="line"/>
    </contour>
    <contour>
      <point x="800" y="300" type="line"/>
      <point x="900" y="300" type="line"/>
      <point x="900" y="400" type="line"/>
      <point x="800" y="400" type="line"/>
    </contour>
    <contour>
      <point x="100" y="400" type="line"/>
      <point x="200" y="400" type="line"/>
      <point x="200" y="500" type="line"/>
      <point x="100" y="500" type="line"/>
    </contour>
    <contour>
      <point x="600" y="400" type="line"/>
      <point x="700" y="400" type="line"/>
      <point x="700" y="500" type="line"/>
      <point x="600" y="500" type="line"/>
    </contour>
    <contour>
      <point x="800" y="400" type="line"/>
      <point x="900" y="400" type="line"/>
      <point x="900" y="500" type="line"/>
      <point x="800" y="500" type="line"/>
    </contour>
    <contour>
      <point x="100" y="500" type="line"/>
      <point x="200" y="500" type="line"/>
      <point x="200" y="600" type="line"/>
      <point x="100" y="600" type="line"/>
    </contour>
    <contour>
      <point x="300" y="500" type="line"/>
      <point x="400" y="500" type="line"/>
      <point x="400" y="600" type="line"/>
      <point x="300" y="600" type="line"/>
    </contour>
    <contour>
      <point x="400" y="500" type="line"/>
      <point x="500" y="500" type="line"/>
      <point x="500" y="600" type="line"/>
      <point x="400" y="600" type="line"/>
    </contour>
    <contour>
      <point x="600" y="600" type="line"/>
      <point x="500" y="600" type="line"/>
      <point x="556" y="600"/>
      <point x="600" y="556"/>
      <point x="600" y="500" type="curve"/>
    </contour>
    <contour>
      <point x="800" y="500" type="line"/>
      <point x="900" y="500" type="line"/>
      <point x="900" y="600" type="line"/>
      <point x="800" y="600" type="line"/>
    </contour>
    <contour>
      <point x="100" y="600" type="line"/>
      <point x="200" y="600" type="line"/>
      <point x="200" y="700" type="line"/>
      <point x="100" y="700" type="line"/>
    </contour>
    <contour>
      <point x="800" y="600" type="line"/>
      <point x="900" y="600" type="line"/>
      <point x="900" y="700" type="line"/>
      <point x="800" y="700" type="line"/>
    </contour>
    <contour>
      <point x="200" y="800" type="line"/>
      <point x="200" y="700" type="line"/>
      <point x="200" y="756"/>
      <point x="244" y="800"/>
      <point x="300" y="800" type="curve"/>
    </contour>
    <contour>
      <point x="300" y="700" type="line"/>
      <point x="400" y="700" type="line"/>
      <point x="400" y="800" type="line"/>
      <point x="300" y="800" type="line"/>
    </contour>
    <contour>
      <point x="400" y="700" type="line"/>
      <point x="500" y="700" type="line"/>
      <point x="500" y="800" type="line"/>
      <point x="400" y="800" type="line"/>
    </contour>
    <contour>
      <point x="500" y="700" type="line"/>
      <point x="600" y="700" type="line"/>
      <point x="600" y="800" type="line"/>
      <point x="500" y="800" type="line"/>
    </contour>
    <contour>
      <point x="600" y="700" type="line"/>
      <point x="700" y="700" type="line"/>
      <point x="700" y="800" type="line"/>
      <point x="600" y="800" type="line"/>
    </contour>
    <contour>
      <point x="800" y="800" type="line"/>
      <point x="700" y="800" type="line"/>
      <point x="756" y="800"/>
      <point x="800" y="756"/>
      <point x="800" y="700" type="curve"/>
    </contour>
  </outline>
</glyph>
<glyph name="C" format="2">
  <advance width="700"/>
  <unicode hex="0043"/>
  <outline>
    <contour>
      <point x="100" y="0" type="line"/>
      <point x="200" y="0" type="line"/>
      <point x="144" y="0"/>
      <point x="100" y="44"/>
      <point x="100" y="100" type="curve"/>
    </contour>
    <contour>
      <point x="200" y="0" type="line"/>
      <point x="300" y="0" type="line"/>
      <point x="300" y="100" type="line"/>
      <point x="200" y="100" type="line"/>
    </contour>
    <contour>
      <point x="300" y="0" type="line"/>
      <point x="400" y="0" type="line"/>
      <point x="400" y="100" type="line"/>
      <point x="300" y="100" type="line"/>
    </contour>
    <contour>
      <point x="400" y="0" type="line"/>
      <point x="500" y="0" type="line"/>
      <point x="500" y="100" type="line"/>
      <point x="400" y="100" type="line"/>
    </contour>
    <contour>
      <point x="500" y="0" type="line"/>
      <point x="600" y="0" type="line"/>
      <point x="600" y="100" type="line"/>
      <point x="500" y="100" type="line"/>
    </contour>
    <contour>
      <point x="100" y="100" type="line"/>
      <point x="200" y="100" type="line"/>
      <point x="200" y="200" type="line"/>
      <point x="100" y="200" type="line"/>
    </contour>
    <contour>
      <point x="500" y="200" type="line"/>
      <point x="500" y="100" type="line"/>
      <point x="500" y="156"/>
      <point x="544" y="200"/>
      <point x="600" y="200" type="curve"/>
    </contour>
    <contour>
      <point x="100" y="200" type="line"/>
      <point x="200" y="200" type="line"/>
      <point x="200" y="300" type="line"/>
      <point x="100" y="300" type="line"/>
    </contour>
    <contour>
      <point x="100" y="300" type="line"/>
      <point x="200" y="300" type="line"/>
      <point x="200" y="400" type="line"/>
      <point x="100" y="400" type="line"/>
    </contour>
    <contour>
      <point x="100" y="400" type="line"/>
      <point x="200" y="400" type="line"/>
      <point x="200" y="500" type="line"/>
      <point x="100" y="500" type="line"/>
    </contour>
    <contour>
      <point x="100" y="500" type="line"/>
      <point x="200" y="500" type="line"/>
      <point x="200" y="600" type="line"/>
      <point x="100" y="600" type="line"/>
    </contour>
    <contour>
      <point x="100" y="600" type="line"/>
      <point x="200" y="600" type="line"/>
      <point x="200" y="700" type="line"/>
      <point x="100" y="700" type="line"/>
    </contour>
    <contour>
      <point x="500" y="600" type="line"/>
      <point x="600" y="600" type="line"/>
      <point x="544" y="600"/>
      <point x="500" y="644"/>
      <point x="500" y="700" type="curve"/>
    </contour>
    <contour>
      <point x="100" y="800" type="line"/>
      <point x="100" y="700" type="line"/>
      <point x="100" y="756"/>
      <point x="144" y="800"/>
      <point x="200" y="800" type="curve"/>
    </contour>
    <contour>
      <point x="200" y="700" type="line"/>
      <point x="300" y="700" type="line"/>
      <point x="300" y="800" type="line"/>
      <point x="200" y="800" type="line"/>
    </contour>
    <contour>
      <point x="300" y="700" type="line"/>
      <point x="400" y="700" type="line"/>
      <point x="400" y="800" type="line"/>
      <point x="300" y="800" type="line"/>
    </contour>
    <contour>
      <point x="400" y="700" type="line"/>
      <point x="500" y="700" type="line"/>
      <point x="500" y="800" type="line"/>
      <point x="400" y="800" type="line"/>
    </contour>
    <contour>
      <point x="500" y="700" type="line"/>
      <point x="600" y="700" type="line"/>
      <point x="600" y="800" type="line"/>
      <point x="500" y="800" type="line"/>
    </contour>
  </outline>
</glyph>
<glyph name="E" format="2">
  <advance width="800"/>
  <unicode hex="0045"/>
  <outline>
    <contour>
      <point x="100" y="0" type="line"/>
      <point x="200" y="0" type="line"/>
      <point x="200" y="100" type="line"/>
      <point x="100" y="100" type="line"/>
    </contour>
    <contour>
      <point x="200" y="0" type="line"/>
      <point x="300" y="0" type="line"/>
      <point x="300" y="100" type="line"/>
      <point x="200" y="100" type="line"/>
    </contour>
    <contour>
      <point x="300" y="0" type="line"/>
      <point x="400" y="0" type="line"/>
      <point x="400" y="100" type="line"/>
      <point x="300" y="100" type="line"/>
    </contour>
    <contour>
      <point x="400" y="0" type="line"/>
      <point x="500" y="0" type="line"/>
      <point x="500" y="100" type="line"/>
      <point x="400" y="100" type="line"/>
    </contour>
    <contour>
      <point x="500" y="0" type="line"/>
      <point x="600" y="0" type="line"/>
      <point x="600" y="100" type="line"/>
      <point x="500" y="100" type="line"/>
    </contour>
    <contour>
      <point x="600" y="0" type="line"/>
      <point x="700" y="0" type="line"/>
      <point x="700" y="100" type="line"/>
      <point x="600" y="100" type="line"/>
    </contour>
    <contour>
      <point x="200" y="100" type="line"/>
      <point x="300" y="100" type="line"/>
      <point x="300" y="200" type="line"/>
      <point x="200" y="200" type="line"/>
    </contour>
    <contour>
      <point x="600" y="200" type="line"/>
      <point x="600" y="100" type="line"/>
      <point x="600" y="156"/>
      <point x="644" y="200"/>
      <point x="700" y="200" type="curve"/>
    </contour>
    <contour>
      <point x="200" y="200" type="line"/>
      <point x="300" y="200" type="line"/>
      <point x="300" y="300" type="line"/>
      <point x="200" y="300" type="line"/>
    </contour>
    <contour>
      <point x="200" y="300" type="line"/>
      <point x="300" y="300" type="line"/>
      <point x="300" y="400" type="line"/>
      <point x="200" y="400" type="line"/>
    </contour>
    <contour>
      <point x="200" y="400" type="line"/>
      <point x="300" y="400" type="line"/>
      <point x="244" y="400"/>
      <point x="200" y="444"/>
      <point x="200" y="500" type="curve"/>
    </contour>
    <contour>
      <point x="300" y="400" type="line"/>
      <point x="400" y="400" type="line"/>
      <point x="400" y="500" type="line"/>
      <point x="300" y="500" type="line"/>
    </contour>
    <contour>
      <point x="400" y="400" type="line"/>
      <point x="500" y="400" type="line"/>
      <point x="500" y="500" type="line"/>
      <point x="400" y="500" type="line"/>
    </contour>
    <contour>
      <point x="500" y="400" type="line"/>
      <point x="600" y="400" type="line"/>
      <point x="600" y="500" type="line"/>
      <point x="500" y="500" type="line"/>
    </contour>
    <contour>
      <point x="200" y="500" type="line"/>
      <point x="300" y="500" type="line"/>
      <point x="300" y="600" type="line"/>
      <point x="200" y="600" type="line"/>
    </contour>
    <contour>
      <point x="200" y="600" type="line"/>
      <point x="300" y="600" type="line"/>
      <point x="300" y="700" type="line"/>
      <point x="200" y="700" type="line"/>
    </contour>
    <contour>
      <point x="600" y="600" type="line"/>
      <point x="700" y="600" type="line"/>
      <point x="644" y="600"/>
      <point x="600" y="644"/>
      <point x="600" y="700" type="curve"/>
    </contour>
    <contour>
      <point x="100" y="700" type="line"/>
      <point x="200" y="700" type="line"/>
      <point x="200" y="800" type="line"/>
      <point x="100" y="800" type="line"/>
    </contour>
    <contour>
      <point x="200" y="700" type="line"/>
      <point x="300" y="700" type="line"/>
      <point x="300" y="800" type="line"/>
      <point x="200" y="800" type="line"/>
    </contour>
    <contour>
      <point x="300" y="700" type="line"/>
      <point x="400" y="700" type="line"/>
      <point x="400" y="800" type="line"/>
      <point x="300" y="800" type="line"/>
    </contour>
    <contour>
      <point x="400" y="700" type="line"/>
      <point x="500" y="700" type="line"/>
      <point x="500" y="800" type="line"/>
      <point x="400" y="800" type="line"/>
    </contour>
    <contour>
      <point x="500" y="700" type="line"/>
      <point x="600" y="700" type="line"/>
      <point x="600" y="800" type="line"/>
      <point x="500" y="800" type="line"/>
    </contour>
    <contour>
      <point x="600" y="700" type="line"/>
      <point x="700" y="700" type="line"/>
      <point x="700" y="800" type="line"/>
      <point x="600" y="800" type="line"/>
    </contour>
  </outline>
</glyph>
<glyph name="J" format="2">
  <advance width="700"/>
  <unicode hex="004A"/>
  <outline>
    <contour>
      <point x="200" y="0" type="line"/>
      <point x="300" y="0" type="line"/>
      <point x="244" y="0"/>
      <point x="200" y="44"/>
      <point x="200" y="100" type="curve"/>
    </contour>
    <contour>
      <point x="400" y="0" type="line"/>
      <point x="400" y="100" type="line"/>
      <point x="400" y="44"/>
      <point x="356" y="0"/>
      <point x="300" y="0" type="curve"/>
    </contour>
    <contour>
      <point x="100" y="100" type="line"/>
      <point x="200" y="100" type="line"/>
      <point x="200" y="200" type="line"/>
      <point x="100" y="200" type="line"/>
    </contour>
    <contour>
      <point x="400" y="100" type="line"/>
      <point x="500" y="100" type="line"/>
      <point x="500" y="200" type="line"/>
      <point x="400" y="200" type="line"/>
    </contour>
    <contour>
      <point x="400" y="200" type="line"/>
      <point x="500" y="200" type="line"/>
      <point x="500" y="300" type="line"/>
      <point x="400" y="300" type="line"/>
    </contour>
    <contour>
      <point x="400" y="300" type="line"/>
      <point x="500" y="300" type="line"/>
      <point x="500" y="400" type="line"/>
      <point x="400" y="400" type="line"/>
    </contour>
    <contour>
      <point x="400" y="400" type="line"/>
      <point x="500" y="400" type="line"/>
      <point x="500" y="500" type="line"/>
      <point x="400" y="500" type="line"/>
    </contour>
    <contour>
      <point x="400" y="500" type="line"/>
      <point x="500" y="500" type="line"/>
      <point x="500" y="600" type="line"/>
      <point x="400" y="600" type="line"/>
    </contour>
    <contour>
      <point x="400" y="600" type="line"/>
      <point x="500" y="600" type="line"/>
      <point x="500" y="700" type="line"/>
      <point x="400" y="700" type="line"/>
    </contour>
    <contour>
      <point x="200" y="700" type="line"/>
      <point x="300" y="700" type="line"/>
      <point x="300" y="800" type="line"/>
      <point x="200" y="800" type="line"/>
    </contour>
    <contour>
      <point x="300" y="700" type="line"/>
      <point x="400" y="700" type="line"/>
      <point x="400" y="800" type="line"/>
      <point x="300" y="800" type="line"/>
    </contour>
    <contour>
      <point x="400" y="700" type="line"/>
      <point x="500" y="700" type="line"/>
      <point x="500" y="800" type="line"/>
      <point x="400" y="800" type="line"/>
    </contour>
    <contour>
      <point x="500" y="700" type="line"/>
      <point x="600" y="700" type="line"/>
      <point x="600" y="800" type="line"/>
      <point x="500" y="800" type="line"/>
    </contour>
  </outline>
</glyph>
<glyph name="X" format="2">
  <advance width="900"/>
  <unicode hex="0058"/>
  <outline>
    <contour>
      <point x="100" y="0" type="line"/>
      <point x="200" y="0" type="line"/>
      <point x="200" y="100" type="line"/>
      <point x="100" y="100" type="line"/>
    </contour>
    <contour>
      <point x="200" y="0" type="line"/>
      <point x="300" y="0" type="line"/>
      <point x="300" y="100" type="line"/>
      <point x="200" y="100" type="line"/>
    </contour>
    <contour>
      <point x="600" y="0" type="line"/>
      <point x="700" y="0" type="line"/>
      <point x="700" y="100" type="line"/>
      <point x="600" y="100" type="line"/>
    </contour>
    <contour>
      <point x="700" y="0" type="line"/>
      <point x="800" y="0" type="line"/>
      <point x="800" y="100" type="line"/>
      <point x="700" y="100" type="line"/>
    </contour>
    <contour>
      <point x="200" y="100" type="line"/>
      <point x="300" y="100" type="line"/>
      <point x="300" y="200" type="line"/>
      <point x="200" y="200" type="line"/>
    </contour>
    <contour>
      <point x="600" y="100" type="line"/>
      <point x="700" y="100" type="line"/>
      <point x="700" y="200" type="line"/>
      <point x="600" y="200" type="line"/>
    </contour>
    <contour>
      <point x="200" y="200" type="line"/>
      <point x="300" y="200" type="line"/>
      <point x="300" y="300" type="line"/>
      <point x="200" y="300" type="line"/>
    </contour>
    <contour>
      <point x="400" y="200" type="line"/>
      <point x="400" y="300" type="line"/>
      <point x="400" y="244"/>
      <point x="356" y="200"/>
      <point x="300" y="200" type="curve"/>
    </contour>
    <contour>
      <point x="400" y="200" type="line"/>
      <point x="500" y="200" type="line"/>
      <point x="444" y="200"/>
      <point x="400" y="244"/>
      <point x="400" y="300" type="curve"/>
    </contour>
    <contour>
      <point x="500" y="200" type="line"/>
      <point x="600" y="200" type="line"/>
      <point x="600" y="300" type="line"/>
      <point x="500" y="300" type="line"/>
    </contour>
    <contour>
      <point x="600" y="200" type="line"/>
      <point x="700" y="200" type="line"/>
      <point x="700" y="300" type="line"/>
      <point x="600" y="300" type="line"/>
    </contour>
    <contour>
      <point x="400" y="300" type="line"/>
      <point x="500" y="300" type="line"/>
      <point x="500" y="400" type="line"/>
      <point x="400" y="400" type="line"/>
    </contour>
    <contour>
      <point x="400" y="400" type="line"/>
      <point x="500" y="400" type="line"/>
      <point x="500" y="500" type="line"/>
      <point x="400" y="500" type="line"/>
    </contour>
    <contour>
      <point x="200" y="500" type="line"/>
      <point x="300" y="500" type="line"/>
      <point x="300" y="600" type="line"/>
      <point x="200" y="600" type="line"/>
    </contour>
    <contour>
      <point x="300" y="500" type="line"/>
      <point x="400" y="500" type="line"/>
      <point x="400" y="600" type="line"/>
      <point x="300" y="600" type="line"/>
    </contour>
    <contour>
      <point x="500" y="600" type="line"/>
      <point x="400" y="600" type="line"/>
      <point x="456" y="600"/>
      <point x="500" y="556"/>
      <point x="500" y="500" type="curve"/>
    </contour>
    <contour>
      <point x="500" y="600" type="line"/>
      <point x="500" y="500" type="line"/>
      <point x="500" y="556"/>
      <point x="544" y="600"/>
      <point x="600" y="600" type="curve"/>
    </contour>
    <contour>
      <point x="600" y="500" type="line"/>
      <point x="700" y="500" type="line"/>
      <point x="700" y="600" type="line"/>
      <point x="600" y="600" type="line"/>
    </contour>
    <contour>
      <point x="200" y="600" type="line"/>
      <point x="300" y="600" type="line"/>
      <point x="300" y="700" type="line"/>
      <point x="200" y="700" type="line"/>
    </contour>
    <contour>
      <point x="600" y="600" type="line"/>
      <point x="700" y="600" type="line"/>
      <point x="700" y="700" type="line"/>
      <point x="600" y="700" type="line"/>
    </contour>
    <contour>
      <point x="100" y="700" type="line"/>
      <point x="200" y="700" type="line"/>
      <point x="200" y="800" type="line"/>
      <point x="100" y="800" type="line"/>
    </contour>
    <contour>
      <point x="200" y="700" type="line"/>
      <point x="300" y="700" type="line"/>
      <point x="300" y="800" type="line"/>
      <point x="200" y="800" type="line"/>
    </contour>
    <contour>
      <point x="600" y="700" type="line"/>
      <point x="700" y="700" type="line"/>
      <point x="700" y="800" type="line"/>
      <point x="600" y="800" type="line"/>
    </contour>
    <contour>
      <point x="700" y="700" type="line"/>
      <point x="800" y="700" type="line"/>
      <point x="800" y="800" type="line"/>
      <point x="700" y="800" type="line"/>
    </contour>
  </outline>
</glyph>
<glyph name="a" format="2">
  <advance width="800"/>
  <unicode hex="0061"/>
  <outline>
    <contour>
      <point x="100" y="0" type="line"/>
      <point x="200" y="0" type="line"/>
      <point x="144" y="0"/>
      <point x="100" y="44"/>
      <point x="100" y="100" type="curve"/>
    </contour>
    <contour>
      <point x="200" y="0" type="line"/>
      <point x="300" y="0" type="line"/>
      <point x="300" y="100" type="line"/>
      <point x="200" y="100" type="line"/>
    </contour>
    <contour>
      <point x="300" y="0" type="line"/>
      <point x="400" y="0" type="line"/>
      <point x="400" y="100" type="line"/>
      <point x="300" y="100" type="line"/>
    </contour>
    <contour>
      <point x="400" y="0" type="line"/>
      <point x="500" y="0" type="line"/>
      <point x="500" y="100" type="line"/>
      <point x="400" y="100" type="line"/>
    </contour>
    <contour>
      <point x="600" y="0" type="line"/>
      <point x="700" y="0" type="line"/>
      <point x="644" y="0"/>
      <point x="600" y="44"/>
      <point x="600" y="100" type="curve"/>
    </contour>
    <contour>
      <point x="100" y="100" type="line"/>
      <point x="200" y="100" type="line"/>
      <point x="200" y="200" type="line"/>
      <point x="100" y="200" type="line"/>
    </contour>
    <contour>
      <point x="500" y="100" type="line"/>
      <point x="600" y="100" type="line"/>
      <point x="600" y="200" type="line"/>
      <point x="500" y="200" type="line"/>
    </contour>
    <contour>
      <point x="100" y="200" type="line"/>
      <point x="200" y="200" type="line"/>
      <point x="200" y="300" type="line"/>
      <point x="100" y="300" type="line"/>
    </contour>
    <contour>
      <point x="200" y="200" type="line"/>
      <point x="300" y="200" type="line"/>
      <point x="300" y="300" type="line"/>
      <point x="200" y="300" type="line"/>
    </contour>
    <contour>
      <point x="300" y="200" type="line"/>
      <point x="400" y="200" type="line"/>
      <point x="400" y="300" type="line"/>
      <point x="300" y="300" type="line"/>
    </contour>
    <contour>
      <point x="500" y="300" type="line"/>
      <point x="400" y="300" type="line"/>
      <point x="456" y="300"/>
      <point x="500" y="256"/>
      <point x="500" y="200" type="curve"/>
    </contour>
    <contour>
      <point x="500" y="200" type="line"/>
      <point x="600" y="200" type="line"/>
      <point x="600" y="300" type="line"/>
      <point x="500" y="300" type="line"/>
    </contour>
    <contour>
      <point x="500" y="300" type="line"/>
      <point x="600" y="300" type="line"/>
      <point x="600" y="400" type="line"/>
      <point x="500" y="400" type="line"/>
    </contour>
    <contour>
      <point x="200" y="400" type="line"/>
      <point x="200" y="500" type="line"/>
      <point x="200" y="444"/>
      <point x="156" y="400"/>
      <point x="100" y="400" type="curve"/>
    </contour>
    <contour>
      <point x="500" y="400" type="line"/>
      <point x="600" y="400" type="line"/>
      <point x="600" y="500" type="line"/>
      <point x="500" y="500" type="line"/>
    </contour>
    <contour>
      <point x="100" y="600" type="line"/>
      <point x="100" y="500" type="line"/>
      <point x="100" y="556"/>
      <point x="144" y="600"/>
      <point x="200" y="600" type="curve"/>
    </contour>
    <contour>
      <point x="200" y="500" type="line"/>
      <point x="300" y="500" type="line"/>
      <point x="300" y="600" type="line"/>
      <point x="200" y="600" type="line"/>
    </contour>
    <contour>
      <point x="300" y="500" type="line"/>
      <point x="400" y="500" type="line"/>
      <point x="400" y="600" type="line"/>
      <point x="300" y="600" type="line"/>
    </contour>
    <contour>
      <point x="400" y="500" type="line"/>
      <point x="500" y="500" type="line"/>
      <point x="500" y="600" type="line"/>
      <point x="400" y="600" type="line"/>
    </contour>
    <contour>
      <point x="600" y="600" type="line"/>
      <point x="500" y="600" type="line"/>
      <point x="556" y="600"/>
      <point x="600" y="556"/>
      <point x="600" y="500" type="curve"/>
    </contour>
  </outline>
</glyph>
<glyph name="c" format="2">
  <advance width="600"/>
  <unicode hex="0063"/>
  <outline>
    <contour>
      <point x="100" y="0" type="line"/>
      <point x="200" y="0" type="line"/>
      <point x="144" y="0"/>
      <point x="100" y="44"/>
      <point x="100" y="100" type="curve"/>
    </contour>
    <contour>
      <point x="200" y="0" type="line"/>
      <point x="300" y="0" type="line"/>
      <point x="300" y="100" type="line"/>
      <point x="200" y="100" type="line"/>
    </contour>
    <contour>
      <point x="300" y="0" type="line"/>
      <point x="400" y="0" type="line"/>
      <point x="400" y="100" type="line"/>
      <point x="300" y="100" type="line"/>
    </contour>
    <contour>
      <point x="500" y="0" type="line"/>
      <point x="500" y="100" type="line"/>
      <point x="500" y="44"/>
      <point x="456" y="0"/>
      <point x="400" y="0" type="curve"/>
    </contour>
    <contour>
      <point x="100" y="100" type="line"/>
      <point x="200" y="100" type="line"/>
      <point x="200" y="200" type="line"/>
      <point x="100" y="200" type="line"/>
    </contour>
    <contour>
      <point x="100" y="200" type="line"/>
      <point x="200" y="200" type="line"/>
      <point x="200" y="300" type="line"/>
      <point x="100" y="300" type="line"/>
    </contour>
    <contour>
      <point x="100" y="300" type="line"/>
      <point x="200" y="300" type="line"/>
      <point x="200" y="400" type="line"/>
      <point x="100" y="400" type="line"/>
    </contour>
    <contour>
      <point x="100" y="400" type="line"/>
      <point x="200" y="400" type="line"/>
      <point x="200" y="500" type="line"/>
      <point x="100" y="500" type="line"/>
    </contour>
    <contour>
      <point x="400" y="400" type="line"/>
      <point x="500" y="400" type="line"/>
      <point x="444" y="400"/>
      <point x="400" y="444"/>
      <point x="400" y="500" type="curve"/>
    </contour>
    <contour>
      <point x="100" y="600" type="line"/>
      <point x="100" y="500" type="line"/>
      <point x="100" y="556"/>
      <point x="144" y="600"/>
      <point x="200" y="600" type="curve"/>
    </contour>
    <contour>
      <point x="200" y="500" type="line"/>
      <point x="300" y="500" type="line"/>
      <point x="300" y="600" type="line"/>
      <point x="200" y="600" type="line"/>
    </contour>
    <contour>
      <point x="300" y="500" type="line"/>
      <point x="400" y="500" type="line"/>
      <point x="400" y="600" type="line"/>
      <point x="300" y="600" type="line"/>
    </contour>
  </outline>
</glyph>
<glyph name="d" format="2">
  <advance width="900"/>
  <unicode hex="0064"/>
  <outline>
    <contour>
      <point x="200" y="0" type="line"/>
      <point x="300" y="0" type="line"/>
      <point x="244" y="0"/>
      <point x="200" y="44"/>
      <point x="200" y="100" type="curve"/>
    </contour>
    <contour>
      <point x="300" y="0" type="line"/>
      <point x="400" y="0" type="line"/>
      <point x="400" y="100" type="line"/>
      <point x="300" y="100" type="line"/>
    </contour>
    <contour>
      <point x="400" y="0" type="line"/>
      <point x="500" y="0" type="line"/>
      <point x="500" y="100" type="line"/>
      <point x="400" y="100" type="line"/>
    </contour>
    <contour>
      <point x="600" y="0" type="line"/>
      <point x="700" y="0" type="line"/>
      <point x="700" y="100" type="line"/>
      <point x="600" y="100" type="line"/>
    </contour>
    <contour>
      <point x="200" y="100" type="line"/>
      <point x="300" y="100" type="line"/>
      <point x="300" y="200" type="line"/>
      <point x="200" y="200" type="line"/>
    </contour>
    <contour>
      <point x="500" y="200" type="line"/>
      <point x="500" y="100" type="line"/>
      <point x="500" y="156"/>
      <point x="544" y="200"/>
      <point x="600" y="200" type="curve"/>
    </contour>
    <contour>
      <point x="600" y="100" type="line"/>
      <point x="700" y="100" type="line"/>
      <point x="700" y="200" type="line"/>
      <point x="600" y="200" type="line"/>
    </contour>
    <contour>
      <point x="200" y="200" type="line"/>
      <point x="300" y="200" type="line"/>
      <point x="300" y="300" type="line"/>
      <point x="200" y="300" type="line"/>
    </contour>
    <contour>
      <point x="600" y="200" type="line"/>
      <point x="700" y="200" type="line"/>
      <point x="700" y="300" type="line"/>
      <point x="600" y="300" type="line"/>
    </contour>
    <contour>
      <point x="200" y="300" type="line"/>
      <point x="300" y="300" type="line"/>
      <point x="300" y="400" type="line"/>
      <point x="200" y="400" type="line"/>
    </contour>
    <contour>
      <point x="600" y="300" type="line"/>
      <point x="700" y="300" type="line"/>
      <point x="700" y="400" type="line"/>
      <point x="600" y="400" type="line"/>
    </contour>
    <contour>
      <point x="200" y="400" type="line"/>
      <point x="300" y="400" type="line"/>
      <point x="300" y="500" type="line"/>
      <point x="200" y="500" type="line"/>
    </contour>
    <contour>
      <point x="600" y="400" type="line"/>
      <point x="700" y="400" type="line"/>
      <point x="700" y="500" type="line"/>
      <point x="600" y="500" type="line"/>
    </contour>
    <contour>
      <point x="200" y="600" type="line"/>
      <point x="200" y="500" type="line"/>
      <point x="200" y="556"/>
      <point x="244" y="600"/>
      <point x="300" y="600" type="curve"/>
    </contour>
    <contour>
      <point x="300" y="500" type="line"/>
      <point x="400" y="500" type="line"/>
      <point x="400" y="600" type="line"/>
      <point x="300" y="600" type="line"/>
    </contour>
    <contour>
      <point x="400" y="500" type="line"/>
      <point x="500" y="500" type="line"/>
      <point x="500" y="600" type="line"/>
      <point x="400" y="600" type="line"/>
    </contour>
    <contour>
      <point x="500" y="500" type="line"/>
      <point x="600" y="500" type="line"/>
      <point x="600" y="600" type="line"/>
      <point x="500" y="600" type="line"/>
    </contour>
    <contour>
      <point x="600" y="500" type="line"/>
      <point x="700" y="500" type="line"/>
      <point x="700" y="600" type="line"/>
      <point x="600" y="600" type="line"/>
    </contour>
    <contour>
      <point x="600" y="600" type="line"/>
      <point x="700" y="600" type="line"/>
      <point x="700" y="700" type="line"/>
      <point x="600" y="700" type="line"/>
    </contour>
    <contour>
      <point x="500" y="700" type="line"/>
      <point x="600" y="700" type="line"/>
      <point x="600" y="800" type="line"/>
      <point x="500" y="800" type="line"/>
    </contour>
    <contour>
      <point x="600" y="700" type="line"/>
      <point x="700" y="700" type="line"/>
      <point x="700" y="800" type="line"/>
      <point x="600" y="800" type="line"/>
    </contour>
  </outline>
</glyph>
<glyph name="f" format="2">
  <advance width="700"/>
  <unicode hex="0066"/>
  <outline>
    <contour>
      <point x="100" y="0" type="line"/>
      <point x="200" y="0" type="line"/>
      <point x="200" y="100" type="line"/>
      <point x="100" y="100" type="line"/>
    </contour>
    <contour>
      <point x="200" y="0" type="line"/>
      <point x="300" y="0" type="line"/>
      <point x="300" y="100" type="line"/>
      <point x="200" y="100" type="line"/>
    </contour>
    <contour>
      <point x="300" y="0" type="line"/>
      <point x="400" y="0" type="line"/>
      <point x="400" y="100" type="line"/>
      <point x="300" y="100" type="line"/>
    </contour>
    <contour>
      <point x="200" y="100" type="line"/>
      <point x="300" y="100" type="line"/>
      <point x="300" y="200" type="line"/>
      <point x="200" y="200" type="line"/>
    </contour>
    <contour>
      <point x="200" y="200" type="line"/>
      <point x="300" y="200" type="line"/>
      <point x="300" y="300" type="line"/>
      <point x="200" y="300" type="line"/>
    </contour>
    <contour>
      <point x="200" y="300" type="line"/>
      <point x="300" y="300" type="line"/>
      <point x="300" y="400" type="line"/>
      <point x="200" y="400" type="line"/>
    </contour>
    <contour>
      <point x="100" y="400" type="line"/>
      <point x="200" y="400" type="line"/>
      <point x="144" y="400"/>
      <point x="100" y="444"/>
      <point x="100" y="500" type="curve"/>
    </contour>
    <contour>
      <point x="200" y="400" type="line"/>
      <point x="300" y="400" type="line"/>
      <point x="300" y="500" type="line"/>
      <point x="200" y="500" type="line"/>
    </contour>
    <contour>
      <point x="300" y="400" type="line"/>
      <point x="400" y="400" type="line"/>
      <point x="400" y="500" type="line"/>
      <point x="300" y="500" type="line"/>
    </contour>
    <contour>
      <point x="400" y="400" type="line"/>
      <point x="500" y="400" type="line"/>
      <point x="500" y="500" type="line"/>
      <point x="400" y="500" type="line"/>
    </contour>
    <contour>
      <point x="200" y="500" type="line"/>
      <point x="300" y="500" type="line"/>
      <point x="300" y="600" type="line"/>
      <point x="200" y="600" type="line"/>
    </contour>
    <contour>
      <point x="200" y="600" type="line"/>
      <point x="300" y="600" type="line"/>
      <point x="300" y="700" type="line"/>
      <point x="200" y="700" type="line"/>
    </contour>
    <contour>
      <point x="500" y="600" type="line"/>
      <point x="600" y="600" type="line"/>
      <point x="544" y="600"/>
      <point x="500" y="644"/>
      <point x="500" y="700" type="curve"/>
    </contour>
    <contour>
      <point x="200" y="800" type="line"/>
      <point x="200" y="700" type="line"/>
      <point x="200" y="756"/>
      <point x="244" y="800"/>
      <point x="300" y="800" type="curve"/>
    </contour>
    <contour>
      <point x="300" y="700" type="line"/>
      <point x="400" y="700" type="line"/>
      <point x="400" y="800" type="line"/>
      <point x="300" y="800" type="line"/>
    </contour>
    <contour>
      <point x="400" y="700" type="line"/>
      <point x="500" y="700" type="line"/>
      <point x="500" y="800" type="line"/>
      <point x="400" y="800" type="line"/>
    </contour>
  </outline>
</glyph>
<glyph name="h" format="2">
  <advance width="900"/>
  <unicode hex="0068"/>
  <outline>
    <contour>
      <point x="100" y="0" type="line"/>
      <point x="200" y="0" type="line"/>
      <point x="200" y="100" type="line"/>
      <point x="100" y="100" type="line"/>
    </contour>
    <contour>
      <point x="200" y="0" type="line"/>
      <point x="300" y="0" type="line"/>
      <point x="300" y="100" type="line"/>
      <point x="200" y="100" type="line"/>
    </contour>
    <contour>
      <point x="600" y="0" type="line"/>
      <point x="700" y="0" type="line"/>
      <point x="644" y="0"/>
      <point x="600" y="44"/>
      <point x="600" y="100" type="curve"/>
    </contour>
    <contour>
      <point x="700" y="0" type="line"/>
      <point x="800" y="0" type="line"/>
      <point x="800" y="100" type="line"/>
      <point x="700" y="100" type="line"/>
    </contour>
    <contour>
      <point x="200" y="100" type="line"/>
      <point x="300" y="100" type="line"/>
      <point x="300" y="200" type="line"/>
      <point x="200" y="200" type="line"/>
    </contour>
    <contour>
      <point x="600" y="100" type="line"/>
      <point x="700" y="100" type="line"/>
      <point x="700" y="200" type="line"/>
      <point x="600" y="200" type="line"/>
    </contour>
    <contour>
      <point x="200" y="200" type="line"/>
      <point x="300" y="200" type="line"/>
      <point x="300" y="300" type="line"/>
      <point x="200" y="300" type="line"/>
    </contour>
    <contour>
      <point x="600" y="200" type="line"/>
      <point x="700" y="200" type="line"/>
      <point x="700" y="300" type="line"/>
      <point x="600" y="300" type="line"/>
    </contour>
    <contour>
      <point x="200" y="300" type="line"/>
      <point x="300" y="300" type="line"/>
      <point x="300" y="400" type="line"/>
      <point x="200" y="400" type="line"/>
    </contour>
    <contour>
      <point x="600" y="300" type="line"/>
      <point x="700" y="300" type="line"/>
      <point x="700" y="400" type="line"/>
      <point x="600" y="400" type="line"/>
    </contour>
    <contour>
      <point x="200" y="400" type="line"/>
      <point x="300" y="400" type="line"/>
      <point x="300" y="500" type="line"/>
      <point x="200" y="500" type="line"/>
    </contour>
    <contour>
      <point x="300" y="400" type="line"/>
      <point x="400" y="400" type="line"/>
      <point x="400" y="500" type="line"/>
      <point x="300" y="500" type="line"/>
    </contour>
    <contour>
      <point x="600" y="400" type="line"/>
      <point x="700" y="400" type="line"/>
      <point x="700" y="500" type="line"/>
      <point x="600" y="500" type="line"/>
    </contour>
    <contour>
      <point x="200" y="500" type="line"/>
      <point x="300" y="500" type="line"/>
      <point x="300" y="600" type="line"/>
      <point x="200" y="600" type="line"/>
    </contour>
    <contour>
      <point x="400" y="600" type="line"/>
      <point x="400" y="500" type="line"/>
      <point x="400" y="556"/>
      <point x="444" y="600"/>
      <point x="500" y="600" type="curve"/>
    </contour>
    <contour>
      <point x="500" y="500" type="line"/>
      <point x="600" y="500" type="line"/>
      <point x="600" y="600" type="line"/>
      <point x="500" y="600" type="line"/>
    </contour>
    <contour>
      <point x="700" y="600" type="line"/>
      <point x="600" y="600" type="line"/>
      <point x="656" y="600"/>
      <point x="700" y="556"/>
      <point x="700" y="500" type="curve"/>
    </contour>
    <contour>
      <point x="200" y="600" type="line"/>
      <point x="300" y="600" type="line"/>
      <point x="300" y="700" type="line"/>
      <point x="200" y="700" type="line"/>
    </contour>
    <contour>
      <point x="100" y="700" type="line"/>
      <point x="200" y="700" type="line"/>
      <point x="200" y="800" type="line"/>
      <point x="100" y="800" type="line"/>
    </contour>
    <contour>
      <point x="200" y="700" type="line"/>
      <point x="300" y="700" type="line"/>
      <point x="300" y="800" type="line"/>
      <point x="200" y="800" type="line"/>
    </contour>
  </outline>
</glyph>
<glyph name="j" format="2">
  <advance width="400"/>
  <unicode hex="006A"/>
  <outline>
    <contour>
      <point x="100" y="-200" type="line"/>
      <point x="200" y="-200" type="line"/>
      <point x="200" y="-100" type="line"/>
      <point x="100" y="-100" type="line"/>
    </contour>
    <contour>
      <point x="300" y="-200" type="line"/>
      <point x="300" y="-100" type="line"/>
      <point x="300" y="-156"/>
      <point x="256" y="-200"/>
      <point x="200" y="-200" type="curve"/>
    </contour>
    <contour>
      <point x="0" y="0" type="line"/>
      <point x="0" y="-100" type="line"/>
      <point x="0" y="-44"/>
      <point x="44" y="0"/>
      <point x="100" y="0" type="curve"/>
    </contour>
    <contour>
      <point x="200" y="-100" type="line"/>
      <point x="300" y="-100" type="line"/>
      <point x="300" y="0" type="line"/>
      <point x="200" y="0" type="line"/>
    </contour>
    <contour>
      <point x="200" y="0" type="line"/>
      <point x="300" y="0" type="line"/>
      <point x="300" y="100" type="line"/>
      <point x="200" y="100" type="line"/>
    </contour>
    <contour>
      <point x="200" y="100" type="line"/>
      <point x="300" y="100" type="line"/>
      <point x="300" y="200" type="line"/>
      <point x="200" y="200" type="line"/>
    </contour>
    <contour>
      <point x="200" y="200" type="line"/>
      <point x="300" y="200" type="line"/>
      <point x="300" y="300" type="line"/>
      <point x="200" y="300" type="line"/>
    </contour>
    <contour>
      <point x="200" y="300" type="line"/>
      <point x="300" y="300" type="line"/>
      <point x="300" y="400" type="line"/>
      <point x="200" y="400" type="line"/>
    </contour>
    <contour>
      <point x="200" y="400" type="line"/>
      <point x="300" y="400" type="line"/>
      <point x="300" y="500" type="line"/>
      <point x="200" y="500" type="line"/>
    </contour>
    <contour>
      <point x="100" y="500" type="line"/>
      <point x="200" y="500" type="line"/>
      <point x="200" y="600" type="line"/>
      <point x="100" y="600" type="line"/>
    </contour>
    <contour>
      <point x="200" y="500" type="line"/>
      <point x="300" y="500" type="line"/>
      <point x="300" y="600" type="line"/>
      <point x="200" y="600" type="line"/>
    </contour>
    <contour>
      <point x="200" y="700" type="line"/>
      <point x="300" y="700" type="line"/>
      <point x="300" y="800" type="line"/>
      <point x="200" y="800" type="line"/>
    </contour>
  </outline>
</glyph>
<glyph name="k" format="2">
  <advance width="900"/>
  <unicode hex="006B"/>
  <outline>
    <contour>
      <point x="100" y="0" type="line"/>
      <point x="200" y="0" type="line"/>
      <point x="200" y="100" type="line"/>
      <point x="100" y="100" type="line"/>
    </contour>
    <contour>
      <point x="300" y="0" type="line"/>
      <point x="300" y="100" type="line"/>
      <point x="300" y="44"/>
      <point x="256" y="0"/>
      <point x="200" y="0" type="curve"/>
    </contour>
    <contour>
      <point x="600" y="0" type="line"/>
      <point x="700" y="0" type="line"/>
      <point x="644" y="0"/>
      <point x="600" y="44"/>
      <point x="600" y="100" type="curve"/>
    </contour>
    <contour>
      <point x="700" y="0" type="line"/>
      <point x="800" y="0" type="line"/>
      <point x="800" y="100" type="line"/>
      <point x="700" y="100" type="line"/>
    </contour>
    <contour>
      <point x="200" y="100" type="line"/>
      <point x="300" y="100" type="line"/>
      <point x="300" y="200" type="line"/>
      <point x="200" y="200" type="line"/>
    </contour>
    <contour>
      <point x="600" y="100" type="line"/>
      <point x="700" y="100" type="line"/>
      <point x="700" y="200" type="line"/>
      <point x="600" y="200" type="line"/>
    </contour>
    <contour>
      <point x="200" y="200" type="line"/>
      <point x="300" y="200" type="line"/>
      <point x="300" y="300" type="line"/>
      <point x="200" y="300" type="line"/>
    </contour>
    <contour>
      <point x="600" y="200" type="line"/>
      <point x="700" y="200" type="line"/>
      <point x="700" y="300" type="line"/>
      <point x="600" y="300" type="line"/>
    </contour>
    <contour>
      <point x="200" y="300" type="line"/>
      <point x="300" y="300" type="line"/>
      <point x="300" y="400" type="line"/>
      <point x="200" y="400" type="line"/>
    </contour>
    <contour>
      <point x="300" y="300" type="line"/>
      <point x="400" y="300" type="line"/>
      <point x="400" y="400" type="line"/>
      <point x="300" y="400" type="line"/>
    </contour>
    <contour>
      <point x="400" y="300" type="line"/>
      <point x="500" y="300" type="line"/>
      <point x="500" y="400" type="line"/>
      <point x="400" y="400" type="line"/>
    </contour>
    <contour>
      <point x="500" y="300" type="line"/>
      <point x="600" y="300" type="line"/>
      <point x="600" y="400" type="line"/>
      <point x="500" y="400" type="line"/>
    </contour>
    <contour>
      <point x="700" y="400" type="line"/>
      <point x="600" y="400" type="line"/>
      <point x="656" y="400"/>
      <point x="700" y="356"/>
      <point x="700" y="300" type="curve"/>
    </contour>
    <contour>
      <point x="200" y="400" type="line"/>
      <point x="300" y="400" type="line"/>
      <point x="300" y="500" type="line"/>
      <point x="200" y="500" type="line"/>
    </contour>
    <contour>
      <point x="400" y="400" type="line"/>
      <point x="500" y="400" type="line"/>
      <point x="500" y="500" type="line"/>
      <point x="400" y="500" type="line"/>
    </contour>
    <contour>
      <point x="200" y="500" type="line"/>
      <point x="300" y="500" type="line"/>
      <point x="300" y="600" type="line"/>
      <point x="200" y="600" type="line"/>
    </contour>
    <contour>
      <point x="500" y="600" type="line"/>
      <point x="500" y="500" type="line"/>
      <point x="500" y="556"/>
      <point x="544" y="600"/>
      <point x="600" y="600" type="curve"/>
    </contour>
    <contour>
      <point x="600" y="500" type="line"/>
      <point x="700" y="500" type="line"/>
      <point x="700" y="600" type="line"/>
      <point x="600" y="600" type="line"/>
    </contour>
    <contour>
      <point x="200" y="600" type="line"/>
      <point x="300" y="600" type="line"/>
      <point x="300" y="700" type="line"/>
      <point x="200" y="700" type="line"/>
    </contour>
    <contour>
      <point x="100" y="700" type="line"/>
      <point x="200" y="700" type="line"/>
      <point x="200" y="800" type="line"/>
      <point x="100" y="800" type="line"/>
    </contour>
    <contour>
      <point x="200" y="700" type="line"/>
      <point x="300" y="700" type="line"/>
      <point x="300" y="800" type="line"/>
      <point x="200" y="800" type="line"/>
    </contour>
  </outline>
</glyph>
<glyph name="l" format="2">
  <advance width="600"/>
  <unicode hex="006C"/>
  <outline>
    <contour>
      <point x="300" y="0" type="line"/>
      <point x="400" y="0" type="line"/>
      <point x="344" y="0"/>
      <point x="300" y="44"/>
      <point x="300" y="100" type="curve"/>
    </contour>
    <contour>
      <point x="400" y="0" type="line"/>
      <point x="500" y="0" type="line"/>
      <point x="500" y="100" type="line"/>
      <point x="400" y="100" type="line"/>
    </contour>
    <contour>
      <point x="200" y="100" type="line"/>
      <point x="300" y="100" type="line"/>
      <point x="300" y="200" type="line"/>
      <point x="200" y="200" type="line"/>
    </contour>
    <contour>
      <point x="200" y="200" type="line"/>
      <point x="300" y="200" type="line"/>
      <point x="300" y="300" type="line"/>
      <point x="200" y="300" type="line"/>
    </contour>
    <contour>
      <point x="200" y="300" type="line"/>
      <point x="300" y="300" type="line"/>
      <point x="300" y="400" type="line"/>
      <point x="200" y="400" type="line"/>
    </contour>
    <contour>
      <point x="200" y="400" type="line"/>
      <point x="300" y="400" type="line"/>
      <point x="300" y="500" type="line"/>
      <point x="200" y="500" type="line"/>
    </contour>
    <contour>
      <point x="200" y="500" type="line"/>
      <point x="300" y="500" type="line"/>
      <point x="300" y="600" type="line"/>
      <point x="200" y="600" type="line"/>
    </contour>
    <contour>
      <point x="200" y="600" type="line"/>
      <point x="300" y="600" type="line"/>
      <point x="300" y="700" type="line"/>
      <point x="200" y="700" type="line"/>
    </contour>
    <contour>
      <point x="100" y="700" type="line"/>
      <point x="200" y="700" type="line"/>
      <point x="200" y="800" type="line"/>
      <point x="100" y="800" type="line"/>
    </contour>
    <contour>
      <point x="200" y="700" type="line"/>
      <point x="300" y="700" type="line"/>
      <point x="300" y="800" type="line"/>
      <point x="200" y="800" type="line"/>
    </contour>
  </outline>
</glyph>
<glyph name="m" format="2">
  <advance width="1100"/>
  <unicode hex="006D"/>
  <outline>
    <contour>
      <point x="100" y="0" type="line"/>
      <point x="200" y="0" type="line"/>
      <point x="200" y="100" type="line"/>
      <point x="100" y="100" type="line"/>
    </contour>
    <contour>
      <point x="300" y="0" type="line"/>
      <point x="300" y="100" type="line"/>
      <point x="300" y="44"/>
      <point x="256" y="0"/>
      <point x="200" y="0" type="curve"/>
    </contour>
    <contour>
      <point x="300" y="0" type="line"/>
      <point x="400" y="0" type="line"/>
      <point x="344" y="0"/>
      <point x="300" y="44"/>
      <point x="300" y="100" type="curve"/>
    </contour>
    <contour>
      <point x="800" y="0" type="line"/>
      <point x="800" y="100" type="line"/>
      <point x="800" y="44"/>
      <point x="756" y="0"/>
      <point x="700" y="0" type="curve"/>
    </contour>
    <contour>
      <point x="800" y="0" type="line"/>
      <point x="900" y="0" type="line"/>
      <point x="844" y="0"/>
      <point x="800" y="44"/>
      <point x="800" y="100" type="curve"/>
    </contour>
    <contour>
      <point x="900" y="0" type="line"/>
      <point x="1000" y="0" type="line"/>
      <point x="1000" y="100" type="line"/>
      <point x="900" y="100" type="line"/>
    </contour>
    <contour>
      <point x="200" y="100" type="line"/>
      <point x="300" y="100" type="line"/>
      <point x="300" y="200" type="line"/>
      <point x="200" y="200" type="line"/>
    </contour>
    <contour>
      <point x="800" y="100" type="line"/>
      <point x="900" y="100" type="line"/>
      <point x="900" y="200" type="line"/>
      <point x="800" y="200" type="line"/>
    </contour>
    <contour>
      <point x="200" y="200" type="line"/>
      <point x="300" y="200" type="line"/>
      <point x="300" y="300" type="line"/>
      <point x="200" y="300" type="line"/>
    </contour>
    <contour>
      <point x="500" y="200" type="line"/>
      <point x="600" y="200" type="line"/>
      <point x="600" y="300" type="line"/>
      <point x="500" y="300" type="line"/>
    </contour>
    <contour>
      <point x="800" y="200" type="line"/>
      <point x="900" y="200" type="line"/>
      <point x="900" y="300" type="line"/>
      <point x="800" y="300" type="line"/>
    </contour>
    <contour>
      <point x="200" y="300" type="line"/>
      <point x="300" y="300" type="line"/>
      <point x="300" y="400" type="line"/>
      <point x="200" y="400" type="line"/>
    </contour>
    <contour>
      <point x="500" y="300" type="line"/>
      <point x="600" y="300" type="line"/>
      <point x="600" y="400" type="line"/>
      <point x="500" y="400" type="line"/>
    </contour>
    <contour>
      <point x="800" y="300" type="line"/>
      <point x="900" y="300" type="line"/>
      <point x="900" y="400" type="line"/>
      <point x="800" y="400" type="line"/>
    </contour>
    <contour>
      <point x="200" y="400" type="line"/>
      <point x="300" y="400" type="line"/>
      <point x="300" y="500" type="line"/>
      <point x="200" y="500" type="line"/>
    </contour>
    <contour>
      <point x="500" y="400" type="line"/>
      <point x="600" y="400" type="line"/>
      <point x="600" y="500" type="line"/>
      <point x="500" y="500" type="line"/>
    </contour>
    <contour>
      <point x="800" y="400" type="line"/>
      <point x="900" y="400" type="line"/>
      <point x="900" y="500" type="line"/>
      <point x="800" y="500" type="line"/>
    </contour>
    <contour>
      <point x="100" y="500" type="line"/>
      <point x="200" y="500" type="line"/>
      <point x="144" y="500"/>
      <point x="100" y="544"/>
      <point x="100" y="600" type="curve"/>
    </contour>
    <contour>
      <point x="200" y="500" type="line"/>
      <point x="300" y="500" type="line"/>
      <point x="300" y="600" type="line"/>
      <point x="200" y="600" type="line"/>
    </contour>
    <contour>
      <point x="300" y="500" type="line"/>
      <point x="400" y="500" type="line"/>
      <point x="400" y="600" type="line"/>
      <point x="300" y="600" type="line"/>
    </contour>
    <contour>
      <point x="500" y="600" type="line"/>
      <point x="400" y="600" type="line"/>
      <point x="456" y="600"/>
      <point x="500" y="556"/>
      <point x="500" y="500" type="curve"/>
    </contour>
    <contour>
      <point x="600" y="600" type="line"/>
      <point x="600" y="500" type="line"/>
      <point x="600" y="556"/>
      <point x="644" y="600"/>
      <point x="700" y="600" type="curve"/>
    </contour>
    <contour>
      <point x="700" y="500" type="line"/>
      <point x="800" y="500" type="line"/>
      <point x="800" y="600" type="line"/>
      <point x="700" y="600" type="line"/>
    </contour>
    <contour>
      <point x="800" y="500" type="line"/>
      <point x="900" y="500" type="line"/>
      <point x="900" y="600" type="line"/>
      <point x="800" y="600" type="line"/>
    </contour>
    <contour>
      <point x="1000" y="500" type="line"/>
      <point x="1000" y="600" type="line"/>
      <point x="1000" y="544"/>
      <point x="956" y="500"/>
      <point x="900" y="500" type="curve"/>
    </contour>
  </outline>
</glyph>
<glyph name="p" format="2">
  <advance width="800"/>
  <unicode hex="0070"/>
  <outline>
    <contour>
      <point x="100" y="-200" type="line"/>
      <point x="200" y="-200" type="line"/>
      <point x="200" y="-100" type="line"/>
      <point x="100" y="-100" type="line"/>
    </contour>
    <contour>
      <point x="200" y="-200" type="line"/>
      <point x="300" y="-200" type="line"/>
      <point x="300" y="-100" type="line"/>
      <point x="200" y="-100" type="line"/>
    </contour>
    <contour>
      <point x="300" y="-200" type="line"/>
      <point x="400" y="-200" type="line"/>
      <point x="400" y="-100" type="line"/>
      <point x="300" y="-100" type="line"/>
    </contour>
    <contour>
      <point x="200" y="-100" type="line"/>
      <point x="300" y="-100" type="line"/>
      <point x="300" y="0" type="line"/>
      <point x="200" y="0" type="line"/>
    </contour>
    <contour>
      <point x="200" y="0" type="line"/>
      <point x="300" y="0" type="line"/>
      <point x="300" y="100" type="line"/>
      <point x="200" y="100" type="line"/>
    </contour>
    <contour>
      <point x="300" y="0" type="line"/>
      <point x="400" y="0" type="line"/>
      <point x="400" y="100" type="line"/>
      <point x="300" y="100" type="line"/>
    </contour>
    <contour>
      <point x="400" y="0" type="line"/>
      <point x="500" y="0" type="line"/>
      <point x="500" y="100" type="line"/>
      <point x="400" y="100" type="line"/>
    </contour>
    <contour>
      <point x="600" y="0" type="line"/>
      <point x="600" y="100" type="line"/>
      <point x="600" y="44"/>
      <point x="556" y="0"/>
      <point x="500" y="0" type="curve"/>
    </contour>
    <contour>
      <point x="200" y="100" type="line"/>
      <point x="300" y="100" type="line"/>
      <point x="300" y="200" type="line"/>
      <point x="200" y="200" type="line"/>
    </contour>
    <contour>
      <point x="600" y="100" type="line"/>
      <point x="700" y="100" type="line"/>
      <point x="700" y="200" type="line"/>
      <point x="600" y="200" type="line"/>
    </contour>
    <contour>
      <point x="200" y="200" type="line"/>
      <point x="300" y="200" type="line"/>
      <point x="300" y="300" type="line"/>
      <point x="200" y="300" type="line"/>
    </contour>
    <contour>
      <point x="600" y="200" type="line"/>
      <point x="700" y="200" type="line"/>
      <point x="700" y="300" type="line"/>
      <point x="600" y="300" type="line"/>
    </contour>
    <contour>
      <point x="200" y="300" type="line"/>
      <point x="300" y="300" type="line"/>
      <point x="300" y="400" type="line"/>
      <point x="200" y="400" type="line"/>
    </contour>
    <contour>
      <point x="600" y="300" type="line"/>
      <point x="700" y="300" type="line"/>
      <point x="700" y="400" type="line"/>
      <point x="600" y="400" type="line"/>
    </contour>
    <contour>
      <point x="200" y="400" type="line"/>
      <point x="300" y="400" type="line"/>
      <point x="300" y="500" type="line"/>
      <point x="200" y="500" type="line"/>
    </contour>
    <contour>
      <point x="400" y="400" type="line"/>
      <point x="400" y="500" type="line"/>
      <point x="400" y="444"/>
      <point x="356" y="400"/>
      <point x="300" y="400" type="curve"/>
    </contour>
    <contour>
      <point x="600" y="400" type="line"/>
      <point x="700" y="400" type="line"/>
      <point x="700" y="500" type="line"/>
      <point x="600" y="500" type="line"/>
    </contour>
    <contour>
      <point x="100" y="500" type="line"/>
      <point x="200" y="500" type="line"/>
      <point x="200" y="600" type="line"/>
      <point x="100" y="600" type="line"/>
    </contour>
    <contour>
      <point x="200" y="500" type="line"/>
      <point x="300" y="500" type="line"/>
      <point x="300" y="600" type="line"/>
      <point x="200" y="600" type="line"/>
    </contour>
    <contour>
      <point x="400" y="500" type="line"/>
      <point x="500" y="500" type="line"/>
      <point x="500" y="600" type="line"/>
      <point x="400" y="600" type="line"/>
    </contour>
    <contour>
      <point x="500" y="500" type="line"/>
      <point x="600" y="500" type="line"/>
      <point x="600" y="600" type="line"/>
      <point x="500" y="600" type="line"/>
    </contour>
    <contour>
      <point x="700" y="600" type="line"/>
      <point x="600" y="600" type="line"/>
      <point x="656" y="600"/>
      <point x="700" y="556"/>
      <point x="700" y="500" type="curve"/>
    </contour>
  </outline>
</glyph>
<glyph name="t" format="2">
  <advance width="600"/>
  <unicode hex="0074"/>
  <outline>
    <contour>
      <point x="300" y="0" type="line"/>
      <point x="400" y="0" type="line"/>
      <point x="344" y="0"/>
      <point x="300" y="44"/>
      <point x="300" y="100" type="curve"/>
    </contour>
    <contour>
      <point x="400" y="0" type="line"/>
      <point x="500" y="0" type="line"/>
      <point x="500" y="100" type="line"/>
      <point x="400" y="100" type="line"/>
    </contour>
    <contour>
      <point x="200" y="100" type="line"/>
      <point x="300" y="100" type="line"/>
      <point x="300" y="200" type="line"/>
      <point x="200" y="200" type="line"/>
    </contour>
    <contour>
      <point x="200" y="200" type="line"/>
      <point x="300" y="200" type="line"/>
      <point x="300" y="300" type="line"/>
      <point x="200" y="300" type="line"/>
    </contour>
    <contour>
      <point x="200" y="300" type="line"/>
      <point x="300" y="300" type="line"/>
      <point x="300" y="400" type="line"/>
      <point x="200" y="400" type="line"/>
    </contour>
    <contour>
      <point x="200" y="400" type="line"/>
      <point x="300" y="400" type="line"/>
      <point x="300" y="500" type="line"/>
      <point x="200" y="500" type="line"/>
    </contour>
    <contour>
      <point x="100" y="500" type="line"/>
      <point x="200" y="500" type="line"/>
      <point x="200" y="600" type="line"/>
      <point x="100" y="600" type="line"/>
    </contour>
    <contour>
      <point x="200" y="500" type="line"/>
      <point x="300" y="500" type="line"/>
      <point x="300" y="600" type="line"/>
      <point x="200" y="600" type="line"/>
    </contour>
    <contour>
      <point x="300" y="500" type="line"/>
      <point x="400" y="500" type="line"/>
      <point x="400" y="600" type="line"/>
      <point x="300" y="600" type="line"/>
    </contour>
    <contour>
      <point x="400" y="500" type="line"/>
      <point x="500" y="500" type="line"/>
      <point x="500" y="600" type="line"/>
      <point x="400" y="600" type="line"/>
    </contour>
    <contour>
      <point x="200" y="700" type="line"/>
      <point x="200" y="600" type="line"/>
      <point x="200" y="656"/>
      <point x="244" y="700"/>
      <point x="300" y="700" type="curve"/>
    </contour>
  </outline>
</glyph>
<glyph name="v" format="2">
  <advance width="900"/>
  <unicode hex="0076"/>
  <outline>
    <contour>
      <point x="400" y="0" type="line"/>
      <point x="500" y="0" type="line"/>
      <point x="500" y="100" type="line"/>
      <point x="400" y="100" type="line"/>
    </contour>
    <contour>
      <point x="300" y="100" type="line"/>
      <point x="400" y="100" type="line"/>
      <point x="400" y="200" type="line"/>
      <point x="300" y="200" type="line"/>
    </contour>
    <contour>
      <point x="500" y="100" type="line"/>
      <point x="600" y="100" type="line"/>
      <point x="600" y="200" type="line"/>
      <point x="500" y="200" type="line"/>
    </contour>
    <contour>
      <point x="300" y="200" type="line"/>
      <point x="400" y="200" type="line"/>
      <point x="400" y="300" type="line"/>
      <point x="300" y="300" type="line"/>
    </contour>
    <contour>
      <point x="500" y="200" type="line"/>
      <point x="600" y="200" type="line"/>
      <point x="600" y="300" type="line"/>
      <point x="500" y="300" type="line"/>
    </contour>
    <contour>
      <point x="200" y="300" type="line"/>
      <point x="300" y="300" type="line"/>
      <point x="300" y="400" type="line"/>
      <point x="200" y="400" type="line"/>
    </contour>
    <contour>
      <point x="400" y="400" type="line"/>
      <point x="300" y="400" type="line"/>
      <point x="356" y="400"/>
      <point x="400" y="356"/>
      <point x="400" y="300" type="curve"/>
    </contour>
    <contour>
      <point x="500" y="400" type="line"/>
      <point x="500" y="300" type="line"/>
      <point x="500" y="356"/>
      <point x="544" y="400"/>
      <point x="600" y="400" type="curve"/>
    </contour>
    <contour>
      <point x="600" y="300" type="line"/>
      <point x="700" y="300" type="line"/>
      <point x="700" y="400" type="line"/>
      <point x="600" y="400" type="line"/>
    </contour>
    <contour>
      <point x="200" y="400" type="line"/>
      <point x="300" y="400" type="line"/>
      <point x="300" y="500" type="line"/>
      <point x="200" y="500" type="line"/>
    </contour>
    <contour>
      <point x="600" y="400" type="line"/>
      <point x="700" y="400" type="line"/>
      <point x="700" y="500" type="line"/>
      <point x="600" y="500" type="line"/>
    </contour>
    <contour>
      <point x="100" y="500" type="line"/>
      <point x="200" y="500" type="line"/>
      <point x="200" y="600" type="line"/>
      <point x="100" y="600" type="line"/>
    </contour>
    <contour>
      <point x="200" y="500" type="line"/>
      <point x="300" y="500" type="line"/>
      <point x="300" y="600" type="line"/>
      <point x="200" y="600" type="line"/>
    </contour>
    <contour>
      <point x="600" y="500" type="line"/>
      <point x="700" y="500" type="line"/>
      <point x="700" y="600" type="line"/>
      <point x="600" y="600" type="line"/>
    </contour>
    <contour>
      <point x="700" y="500" type="line"/>
      <point x="800" y="500" type="line"/>
      <point x="800" y="600" type="line"/>
      <point x="700" y="600" type="line"/>
    </contour>
  </outline>
</glyph>
<glyph name="y" format="2">
  <advance width="900"/>
  <unicode hex="0079"/>
  <outline>
    <contour>
      <point x="300" y="-200" type="line"/>
      <point x="400" y="-200" type="line"/>
      <point x="400" y="-100" type="line"/>
      <point x="300" y="-100" type="line"/>
    </contour>
    <contour>
      <point x="500" y="-200" type="line"/>
      <point x="500" y="-100" type="line"/>
      <point x="500" y="-156"/>
      <point x="456" y="-200"/>
      <point x="400" y="-200" type="curve"/>
    </contour>
    <contour>
      <point x="200" y="0" type="line"/>
      <point x="200" y="-100" type="line"/>
      <point x="200" y="-44"/>
      <point x="244" y="0"/>
      <point x="300" y="0" type="curve"/>
    </contour>
    <contour>
      <point x="400" y="-100" type="line"/>
      <point x="500" y="-100" type="line"/>
      <point x="500" y="0" type="line"/>
      <point x="400" y="0" type="line"/>
    </contour>
    <contour>
      <point x="400" y="0" type="line"/>
      <point x="500" y="0" type="line"/>
      <point x="500" y="100" type="line"/>
      <point x="400" y="100" type="line"/>
    </contour>
    <contour>
      <point x="400" y="200" type="line"/>
      <point x="300" y="200" type="line"/>
      <point x="356" y="200"/>
      <point x="400" y="156"/>
      <point x="400" y="100" type="curve"/>
    </contour>
    <contour>
      <point x="500" y="200" type="line"/>
      <point x="500" y="100" type="line"/>
      <point x="500" y="156"/>
      <point x="544" y="200"/>
      <point x="600" y="200" type="curve"/>
    </contour>
    <contour>
      <point x="200" y="200" type="line"/>
      <point x="300" y="200" type="line"/>
      <point x="300" y="300" type="line"/>
      <point x="200" y="300" type="line"/>
    </contour>
    <contour>
      <point x="600" y="200" type="line"/>
      <point x="700" y="200" type="line"/>
      <point x="700" y="300" type="line"/>
      <point x="600" y="300" type="line"/>
    </contour>
    <contour>
      <point x="200" y="300" type="line"/>
      <point x="300" y="300" type="line"/>
      <point x="300" y="400" type="line"/>
      <point x="200" y="400" type="line"/>
    </contour>
    <contour>
      <point x="600" y="300" type="line"/>
      <point x="700" y="300" type="line"/>
      <point x="700" y="400" type="line"/>
      <point x="600" y="400" type="line"/>
    </contour>
    <contour>
      <point x="200" y="400" type="line"/>
      <point x="300" y="400" type="line"/>
      <point x="300" y="500" type="line"/>
      <point x="200" y="500" type="line"/>
    </contour>
    <contour>
      <point x="600" y="400" type="line"/>
      <point x="700" y="400" type="line"/>
      <point x="700" y="500" type="line"/>
      <point x="600" y="500" type="line"/>
    </contour>
    <contour>
      <point x="100" y="500" type="line"/>
      <point x="200" y="500" type="line"/>
      <point x="200" y="600" type="line"/>
      <point x="100" y="600" type="line"/>
    </contour>
    <contour>
      <point x="200" y="500" type="line"/>
      <point x="300" y="500" type="line"/>
      <point x="300" y="600" type="line"/>
      <point x="200" y="600" type="line"/>
    </contour>
    <contour>
      <point x="600" y="500" type="line"/>
      <point x="700" y="500" type="line"/>
      <point x="700" y="600" type="line"/>
      <point x="600" y="600" type="line"/>
    </contour>
    <contour>
      <point x="700" y="500" type="line"/>
      <point x="800" y="500" type="line"/>
      <point x="800" y="600" type="line"/>
      <point x="700" y="600" type="line"/>
    </contour>
  </outline>
</glyph>
<glyph name="z" format="2">
  <advance width="600"/>
  <unicode hex="007A"/>
  <outline>
    <contour>
      <point x="100" y="0" type="line"/>
      <point x="200" y="0" type="line"/>
      <point x="200" y="100" type="line"/>
      <point x="100" y="100" type="line"/>
    </contour>
    <contour>
      <point x="200" y="0" type="line"/>
      <point x="300" y="0" type="line"/>
      <point x="300" y="100" type="line"/>
      <point x="200" y="100" type="line"/>
    </contour>
    <contour>
      <point x="300" y="0" type="line"/>
      <point x="400" y="0" type="line"/>
      <point x="400" y="100" type="line"/>
      <point x="300" y="100" type="line"/>
    </contour>
    <contour>
      <point x="500" y="0" type="line"/>
      <point x="500" y="100" type="line"/>
      <point x="500" y="44"/>
      <point x="456" y="0"/>
      <point x="400" y="0" type="curve"/>
    </contour>
    <contour>
      <point x="100" y="100" type="line"/>
      <point x="200" y="100" type="line"/>
      <point x="200" y="200" type="line"/>
      <point x="100" y="200" type="line"/>
    </contour>
    <contour>
      <point x="100" y="300" type="line"/>
      <point x="100" y="200" type="line"/>
      <point x="100" y="256"/>
      <point x="144" y="300"/>
      <point x="200" y="300" type="curve"/>
    </contour>
    <contour>
      <point x="300" y="200" type="line"/>
      <point x="300" y="300" type="line"/>
      <point x="300" y="244"/>
      <point x="256" y="200"/>
      <point x="200" y="200" type="curve"/>
    </contour>
    <contour>
      <point x="300" y="300" type="line"/>
      <point x="400" y="300" type="line"/>
      <point x="400" y="400" type="line"/>
      <point x="300" y="400" type="line"/>
    </contour>
    <contour>
      <point x="500" y="300" type="line"/>
      <point x="500" y="400" type="line"/>
      <point x="500" y="344"/>
      <point x="456" y="300"/>
      <point x="400" y="300" type="curve"/>
    </contour>
    <contour>
      <point x="400" y="400" type="line"/>
      <point x="500" y="400" type="line"/>
      <point x="500" y="500" type="line"/>
      <point x="400" y="500" type="line"/>
    </contour>
    <contour>
      <point x="100" y="600" type="line"/>
      <point x="100" y="500" type="line"/>
      <point x="100" y="556"/>
      <point x="144" y="600"/>
      <point x="200" y="600" type="curve"/>
    </contour>
    <contour>
      <point x="200" y="500" type="line"/>
      <point x="300" y="500" type="line"/>
      <point x="300" y="600" type="line"/>
      <point x="200" y="600" type="line"/>
    </contour>
    <contour>
      <point x="300" y="500" type="line"/>
      <point x="400" y="500" type="line"/>
      <point x="400" y="600" type="line"/>
      <point x="300" y="600" type="line"/>
    </contour>
    <contour>
      <point x="400" y="500" type="line"/>
      <point x="500" y="500" type="line"/>
      <point x="500" y="600" type="line"/>
      <point x="400" y="600" type="line"/>
    </contour>
  </outline>
</glyph>
<glyph name="braceright" format="2">
  <advance width="600"/>
  <unicode hex="007D"/>
  <outline>
    <contour>
      <point x="100" y="0" type="line"/>
      <point x="200" y="0" type="line"/>
      <point x="200" y="100" type="line"/>
      <point x="100" y="100" type="line"/>
    </contour>
    <contour>
      <point x="200" y="0" type="line"/>
      <point x="300" y="0" type="line"/>
      <point x="300" y="100" type="line"/>
      <point x="200" y="100" type="line"/>
    </contour>
    <contour>
      <point x="400" y="0" type="line"/>
      <point x="400" y="100" type="line"/>
      <point x="400" y="44"/>
      <point x="356" y="0"/>
      <point x="300" y="0" type="curve"/>
    </contour>
    <contour>
      <point x="300" y="100" type="line"/>
      <point x="400" y="100" type="line"/>
      <point x="400" y="200" type="line"/>
      <point x="300" y="200" type="line"/>
    </contour>
    <contour>
      <point x="300" y="300" type="line"/>
      <point x="300" y="200" type="line"/>
      <point x="300" y="256"/>
      <point x="344" y="300"/>
      <point x="400" y="300" type="curve"/>
    </contour>
    <contour>
      <point x="500" y="300" type="line"/>
      <point x="500" y="400" type="line"/>
      <point x="500" y="344"/>
      <point x="456" y="300"/>
      <point x="400" y="300" type="curve"/>
    </contour>
    <contour>
      <point x="500" y="500" type="line"/>
      <point x="400" y="500" type="line"/>
      <point x="456" y="500"/>
      <point x="500" y="456"/>
      <point x="500" y="400" type="curve"/>
    </contour>
    <contour>
      <point x="300" y="500" type="line"/>
      <point x="400" y="500" type="line"/>
      <point x="344" y="500"/>
      <point x="300" y="544"/>
      <point x="300" y="600" type="curve"/>
    </contour>
    <contour>
      <point x="300" y="600" type="line"/>
      <point x="400" y="600" type="line"/>
      <point x="400" y="700" type="line"/>
      <point x="300" y="700" type="line"/>
    </contour>
    <contour>
      <point x="100" y="700" type="line"/>
      <point x="200" y="700" type="line"/>
      <point x="200" y="800" type="line"/>
      <point x="100" y="800" type="line"/>
    </contour>
    <contour>
      <point x="200" y="700" type="line"/>
      <point x="300" y="700" type="line"/>
      <point x="300" y="800" type="line"/>
      <point x="200" y="800" type="line"/>
    </contour>
    <contour>
      <point x="400" y="800" type="line"/>
      <point x="300" y="800" type="line"/>
      <point x="356" y="800"/>
      <point x="400" y="756"/>
      <point x="400" y="700" type="curve"/>
    </contour>
  </outline>
</glyph>
<glyph name="cent" format="2">
  <advance width="700"/>
  <unicode hex="00A2"/>
  <outline>
    <contour>
      <point x="300" y="0" type="line"/>
      <point x="400" y="0" type="line"/>
      <point x="400" y="100" type="line"/>
      <point x="300" y="100" type="line"/>
    </contour>
    <contour>
      <point x="200" y="100" type="line"/>
      <point x="300" y="100" type="line"/>
      <point x="300" y="200" type="line"/>
      <point x="200" y="200" type="line"/>
    </contour>
    <contour>
      <point x="300" y="100" type="line"/>
      <point x="400" y="100" type="line"/>
      <point x="400" y="200" type="line"/>
      <point x="300" y="200" type="line"/>
    </contour>
    <contour>
      <point x="400" y="100" type="line"/>
      <point x="500" y="100" type="line"/>
      <point x="500" y="200" type="line"/>
      <point x="400" y="200" type="line"/>
    </contour>
    <contour>
      <point x="100" y="200" type="line"/>
      <point x="200" y="200" type="line"/>
      <point x="200" y="300" type="line"/>
      <point x="100" y="300" type="line"/>
    </contour>
    <contour>
      <point x="100" y="300" type="line"/>
      <point x="200" y="300" type="line"/>
      <point x="200" y="400" type="line"/>
      <point x="100" y="400" type="line"/>
    </contour>
    <contour>
      <point x="100" y="400" type="line"/>
      <point x="200" y="400" type="line"/>
      <point x="200" y="500" type="line"/>
      <point x="100" y="500" type="line"/>
    </contour>
    <contour>
      <point x="200" y="500" type="line"/>
      <point x="300" y="500" type="line"/>
      <point x="300" y="600" type="line"/>
      <point x="200" y="600" type="line"/>
    </contour>
    <contour>
      <point x="300" y="500" type="line"/>
      <point x="400" y="500" type="line"/>
      <point x="400" y="600" type="line"/>
      <point x="300" y="600" type="line"/>
    </contour>
    <contour>
      <point x="400" y="500" type="line"/>
      <point x="500" y="500" type="line"/>
      <point x="500" y="600" type="line"/>
      <point x="400" y="600" type="line"/>
    </contour>
    <contour>
      <point x="300" y="600" type="line"/>
      <point x="400" y="600" type="line"/>
      <point x="400" y="700" type="line"/>
      <point x="300" y="700" type="line"/>
    </contour>
  </outline>
</glyph>
<glyph name="yen" format="2">
  <advance width="900"/>
  <unicode hex="00A5"/>
  <outline>
    <contour>
      <point x="400" y="0" type="line"/>
      <point x="500" y="0" type="line"/>
      <point x="500" y="100" type="line"/>
      <point x="400" y="100" type="line"/>
    </contour>
    <contour>
      <point x="400" y="100" type="line"/>
      <point x="500" y="100" type="line"/>
      <point x="500" y="200" type="line"/>
      <point x="400" y="200" type="line"/>
    </contour>
    <contour>
      <point x="100" y="200" type="line"/>
      <point x="200" y="200" type="line"/>
      <point x="200" y="300" type="line"/>
      <point x="100" y="300" type="line"/>
    </contour>
    <contour>
      <point x="300" y="200" type="line"/>
      <point x="400" y="200" type="line"/>
      <point x="400" y="300" type="line"/>
      <point x="300" y="300" type="line"/>
    </contour>
    <contour>
      <point x="400" y="200" type="line"/>
      <point x="500" y="200" type="line"/>
      <point x="500" y="300" type="line"/>
      <point x="400" y="300" type="line"/>
    </contour>
    <contour>
      <point x="500" y="200" type="line"/>
      <point x="600" y="200" type="line"/>
      <point x="600" y="300" type="line"/>
      <point x="500" y="300" type="line"/>
    </contour>
    <contour>
      <point x="700" y="200" type="line"/>
      <point x="800" y="200" type="line"/>
      <point x="800" y="300" type="line"/>
      <point x="700" y="300" type="line"/>
    </contour>
    <contour>
      <point x="400" y="300" type="line"/>
      <point x="500" y="300" type="line"/>
      <point x="500" y="400" type="line"/>
      <point x="400" y="400" type="line"/>
    </contour>
    <contour>
      <point x="400" y="400" type="line"/>
      <point x="500" y="400" type="line"/>
      <point x="500" y="500" type="line"/>
      <point x="400" y="500" type="line"/>
    </contour>
    <contour>
      <point x="100" y="500" type="line"/>
      <point x="200" y="500" type="line"/>
      <point x="200" y="600" type="line"/>
      <point x="100" y="600" type="line"/>
    </contour>
    <contour>
      <point x="300" y="500" type="line"/>
      <point x="400" y="500" type="line"/>
      <point x="400" y="600" type="line"/>
      <point x="300" y="600" type="line"/>
    </contour>
    <contour>
      <point x="500" y="500" type="line"/>
      <point x="600" y="500" type="line"/>
      <point x="600" y="600" type="line"/>
      <point x="500" y="600" type="line"/>
    </contour>
    <contour>
      <point x="700" y="500" type="line"/>
      <point x="800" y="500" type="line"/>
      <point x="800" y="600" type="line"/>
      <point x="700" y="600" type="line"/>
    </contour>
    <contour>
      <point x="200" y="600" type="line"/>
      <point x="300" y="600" type="line"/>
      <point x="300" y="700" type="line"/>
      <point x="200" y="700" type="line"/>
    </contour>
    <contour>
      <point x="600" y="600" type="line"/>
      <point x="700" y="600" type="line"/>
      <point x="700" y="700" type="line"/>
      <point x="600" y="700" type="line"/>
    </contour>
    <contour>
      <point x="200" y="700" type="line"/>
      <point x="300" y="700" type="line"/>
      <point x="300" y="800" type="line"/>
      <point x="200" y="800" type="line"/>
    </contour>
    <contour>
      <point x="600" y="700" type="line"/>
      <point x="700" y="700" type="line"/>
      <point x="700" y="800" type="line"/>
      <point x="600" y="800" type="line"/>
    </contour>
  </outline>
</glyph>
<glyph name="degree" format="2">
  <advance width="500"/>
  <unicode hex="00B0"/>
  <outline>
    <contour>
      <point x="100" y="500" type="line"/>
      <point x="200" y="500" type="line"/>
      <point x="144" y="500"/>
      <point x="100" y="544"/>
      <point x="100" y="600" type="curve"/>
    </contour>
    <contour>
      <point x="200" y="500" type="line"/>
      <point x="300" y="500" type="line"/>
      <point x="300" y="600" type="line"/>
      <point x="200" y="600" type="line"/>
    </contour>
    <contour>
      <point x="400" y="500" type="line"/>
      <point x="400" y="600" type="line"/>
      <point x="400" y="544"/>
      <point x="356" y="500"/>
      <point x="300" y="500" type="curve"/>
    </contour>
    <contour>
      <point x="100" y="600" type="line"/>
      <point x="200" y="600" type="line"/>
      <point x="200" y="700" type="line"/>
      <point x="100" y="700" type="line"/>
    </contour>
    <contour>
      <point x="300" y="600" type="line"/>
      <point x="400" y="600" type="line"/>
      <point x="400" y="700" type="line"/>
      <point x="300" y="700" type="line"/>
    </contour>
    <contour>
      <point x="100" y="800" type="line"/>
      <point x="100" y="700" type="line"/>
      <point x="100" y="756"/>
      <point x="144" y="800"/>
      <point x="200" y="800" type="curve"/>
    </contour>
    <contour>
      <point x="200" y="700" type="line"/>
      <point x="300" y="700" type="line"/>
      <point x="300" y="800" type="line"/>
      <point x="200" y="800" type="line"/>
    </contour>
    <contour>
      <point x="400" y="800" type="line"/>
      <point x="300" y="800" type="line"/>
      <point x="356" y="800"/>
      <point x="400" y="756"/>
      <point x="400" y="700" type="curve"/>
    </contour>
  </outline>
</glyph>
<glyph name="gravecomb" format="2">
  <advance width="500"/>
  <unicode hex="0300"/>
  <outline>
    <contour>
      <point x="200" y="600" type="line"/>
      <point x="300" y="600" type="line"/>
      <point x="244" y="600"/>
      <point x="200" y="644"/>
      <point x="200" y="700" type="curve"/>
    </contour>
    <contour>
      <point x="300" y="600" type="line"/>
      <point x="400" y="600" type="line"/>
      <point x="400" y="700" type="line"/>
      <point x="300" y="700" type="line"/>
    </contour>
    <contour>
      <point x="100" y="700" type="line"/>
      <point x="200" y="700" type="line"/>
      <point x="200" y="800" type="line"/>
      <point x="100" y="800" type="line"/>
    </contour>
    <contour>
      <point x="300" y="800" type="line"/>
      <point x="200" y="800" type="line"/>
      <point x="256" y="800"/>
      <point x="300" y="756"/>
      <point x="300" y="700" type="curve"/>
    </contour>
  </outline>
</glyph>
<glyph name="acutecomb" format="2">
  <advance width="500"/>
  <unicode hex="0301"/>
  <outline>
    <contour>
      <point x="100" y="600" type="line"/>
      <point x="200" y="600" type="line"/>
      <point x="200" y="700" type="line"/>
      <point x="100" y="700" type="line"/>
    </contour>
    <contour>
      <point x="300" y="600" type="line"/>
      <point x="300" y="700" type="line"/>
      <point x="300" y="644"/>
      <point x="256" y="600"/>
      <point x="200" y="600" type="curve"/>
    </contour>
    <contour>
      <point x="200" y="800" type="line"/>
      <point x="200" y="700" type="line"/>
      <point x="200" y="756"/>
      <point x="244" y="800"/>
      <point x="300" y="800" type="curve"/>
    </contour>
    <contour>
      <point x="300" y="700" type="line"/>
      <point x="400" y="700" type="line"/>
      <point x="400" y="800" type="line"/>
      <point x="300" y="800" type="line"/>
    </contour>
  </outline>
</glyph>
<glyph name="endash" format="2">
  <advance width="700"/>
  <unicode hex="2013"/>
  <outline>
    <contour>
      <point x="100" y="300" type="line"/>
      <point x="200" y="300" type="line"/>
      <point x="200" y="400" type="line"/>
      <point x="100" y="400" type="line"/>
    </contour>
    <contour>
      <point x="200" y="300" type="line"/>
      <point x="300" y="300" type="line"/>
      <point x="300" y="400" type="line"/>
      <point x="200" y="400" type="line"/>
    </contour>
    <contour>
      <point x="300" y="300" type="line"/>
      <point x="400" y="300" type="line"/>
      <point x="400" y="400" type="line"/>
      <point x="300" y="400" type="line"/>
    </contour>
    <contour>
      <point x="400" y="300" type="line"/>
      <point x="500" y="300" type="line"/>
      <point x="500" y="400" type="line"/>
      <point x="400" y="400" type="line"/>
    </contour>
    <contour>
      <point x="500" y="300" type="line"/>
      <point x="600" y="300" type="line"/>
      <point x="600" y="400" type="line"/>
      <point x="500" y="400" type="line"/>
    </contour>
  </outline>
</glyph>
<glyph name="emdash" format="2">
  <advance width="900"/>
  <unicode hex="2014"/>
  <outline>
    <contour>
      <point x="100" y="300" type="line"/>
      <point x="200" y="300" type="line"/>
      <point x="200" y="400" type="line"/>
      <point x="100" y="400" type="line"/>
    </contour>
    <contour>
      <point x="200" y="300" type="line"/>
      <point x="300" y="300" type="line"/>
      <point x="300" y="400" type="line"/>
      <point x="200" y="400" type="line"/>
    </contour>
    <contour>
      <point x="300" y="300" type="line"/>
      <point x="400" y="300" type="line"/>
      <point x="400" y="400" type="line"/>
      <point x="300" y="400" type="line"/>
    </contour>
    <contour>
      <point x="400" y="300" type="line"/>
      <point x="500" y="300" type="line"/>
      <point x="500" y="400" type="line"/>
      <point x="400" y="400" type="line"/>
    </contour>
    <contour>
      <point x="500" y="300" type="line"/>
      <point x="600" y="300" type="line"/>
      <point x="600" y="400" type="line"/>
      <point x="500" y="400" type="line"/>
    </contour>
    <contour>
      <point x="600" y="300" type="line"/>
      <point x="700" y="300" type="line"/>
      <point x="700" y="400" type="line"/>
      <point x="600" y="400" type="line"/>
    </contour>
    <contour>
      <point x="700" y="300" type="line"/>
      <point x="800" y="300" type="line"/>
      <point x="800" y="400" type="line"/>
      <point x="700" y="400" type="line"/>
    </contour>
  </outline>
</glyph>
<glyph name="quoteleft" format="2">
  <advance width="400"/>
  <unicode hex="2018"/>
  <outline>
    <contour>
      <point x="100" y="500" type="line"/>
      <point x="200" y="500" type="line"/>
      <point x="200" y="600" type="line"/>
      <point x="100" y="600" type="line"/>
    </contour>
    <contour>
      <point x="200" y="500" type="line"/>
      <point x="300" y="500" type="line"/>
      <point x="300" y="600" type="line"/>
      <point x="200" y="600" type="line"/>
    </contour>
    <contour>
      <point x="100" y="700" type="line"/>
      <point x="100" y="600" type="line"/>
      <point x="100" y="656"/>
      <point x="144" y="700"/>
      <point x="200" y="700" type="curve"/>
    </contour>
    <contour>
      <point x="200" y="700" type="line"/>
      <point x="300" y="700" type="line"/>
      <point x="300" y="800" type="line"/>
      <point x="200" y="800" type="line"/>
    </contour>
  </outline>
</glyph>
<glyph name="quoteright" format="2">
  <advance width="400"/>
  <unicode hex="2019"/>
  <outline>
    <contour>
      <point x="100" y="500" type="line"/>
      <point x="200" y="500" type="line"/>
      <point x="200" y="600" type="line"/>
      <point x="100" y="600" type="line"/>
    </contour>
    <contour>
      <point x="300" y="600" type="line"/>
      <point x="300" y="700" type="line"/>
      <point x="300" y="644"/>
      <point x="256" y="600"/>
      <point x="200" y="600" type="curve"/>
    </contour>
    <contour>
      <point x="100" y="700" type="line"/>
      <point x="200" y="700" type="line"/>
      <point x="200" y="800" type="line"/>
      <point x="100" y="800" type="line"/>
    </contour>
    <contour>
      <point x="200" y="700" type="line"/>
      <point x="300" y="700" type="line"/>
      <point x="300" y="800" type="line"/>
      <point x="200" y="800" type="line"/>
    </contour>
  </outline>
</glyph>
<glyph name="arrowleft" format="2">
  <advance width="700"/>
  <unicode hex="2190"/>
  <outline>
    <contour>
      <point x="300" y="200" type="line"/>
      <point x="400" y="200" type="line"/>
      <point x="400" y="300" type="line"/>
      <point x="300" y="300" type="line"/>
    </contour>
    <contour>
      <point x="200" y="300" type="line"/>
      <point x="300" y="300" type="line"/>
      <point x="244" y="300"/>
      <point x="200" y="344"/>
      <point x="200" y="400" type="curve"/>
    </contour>
    <contour>
      <point x="100" y="400" type="line"/>
      <point x="200" y="400" type="line"/>
      <point x="200" y="500" type="line"/>
      <point x="100" y="500" type="line"/>
    </contour>
    <contour>
      <point x="200" y="400" type="line"/>
      <point x="300" y="400" type="line"/>
      <point x="300" y="500" type="line"/>
      <point x="200" y="500" type="line"/>
    </contour>
    <contour>
      <point x="300" y="400" type="line"/>
      <point x="400" y="400" type="line"/>
      <point x="400" y="500" type="line"/>
      <point x="300" y="500" type="line"/>
    </contour>
    <contour>
      <point x="400" y="400" type="line"/>
      <point x="500" y="400" type="line"/>
      <point x="500" y="500" type="line"/>
      <point x="400" y="500" type="line"/>
    </contour>
    <contour>
      <point x="500" y="400" type="line"/>
      <point x="600" y="400" type="line"/>
      <point x="600" y="500" type="line"/>
      <point x="500" y="500" type="line"/>
    </contour>
    <contour>
      <point x="200" y="600" type="line"/>
      <point x="200" y="500" type="line"/>
      <point x="200" y="556"/>
      <point x="244" y="600"/>
      <point x="300" y="600" type="curve"/>
    </contour>
    <contour>
      <point x="300" y="600" type="line"/>
      <point x="400" y="600" type="line"/>
      <point x="400" y="700" type="line"/>
      <point x="300" y="700" type="line"/>
    </contour>
  </outline>
</glyph>
<glyph name="arrowright" format="2">
  <advance width="700"/>
  <unicode hex="2192"/>
  <outline>
    <contour>
      <point x="300" y="100" type="line"/>
      <point x="400" y="100" type="line"/>
      <point x="400" y="200" type="line"/>
      <point x="300" y="200" type="line"/>
    </contour>
    <contour>
      <point x="500" y="200" type="line"/>
      <point x="500" y="300" type="line"/>
      <point x="500" y="244"/>
      <point x="456" y="200"/>
      <point x="400" y="200" type="curve"/>
    </contour>
    <contour>
      <point x="100" y="300" type="line"/>
      <point x="200" y="300" type="line"/>
      <point x="200" y="400" type="line"/>
      <point x="100" y="400" type="line"/>
    </contour>
    <contour>
      <point x="200" y="300" type="line"/>
      <point x="300" y="300" type="line"/>
      <point x="300" y="400" type="line"/>
      <point x="200" y="400" type="line"/>
    </contour>
    <contour>
      <point x="300" y="300" type="line"/>
      <point x="400" y="300" type="line"/>
      <point x="400" y="400" type="line"/>
      <point x="300" y="400" type="line"/>
    </contour>
    <contour>
      <point x="400" y="300" type="line"/>
      <point x="500" y="300" type="line"/>
      <point x="500" y="400" type="line"/>
      <point x="400" y="400" type="line"/>
    </contour>
    <contour>
      <point x="500" y="300" type="line"/>
      <point x="600" y="300" type="line"/>
      <point x="600" y="400" type="line"/>
      <point x="500" y="400" type="line"/>
    </contour>
    <contour>
      <point x="500" y="500" type="line"/>
      <point x="400" y="500" type="line"/>
      <point x="456" y="500"/>
      <point x="500" y="456"/>
      <point x="500" y="400" type="curve"/>
    </contour>
    <contour>
      <point x="300" y="500" type="line"/>
      <point x="400" y="500" type="line"/>
      <point x="400" y="600" type="line"/>
      <point x="300" y="600" type="line"/>
    </contour>
  </outline>
</glyph>
<glyph name="arrowdown" format="2">
  <advance width="700"/>
  <unicode hex="2193"/>
  <outline>
    <contour>
      <point x="300" y="100" type="line"/>
      <point x="400" y="100" type="line"/>
      <point x="400" y="200" type="line"/>
      <point x="300" y="200" type="line"/>
    </contour>
    <contour>
      <point x="200" y="200" type="line"/>
      <point x="300" y="200" type="line"/>
      <point x="244" y="200"/>
      <point x="200" y="244"/>
      <point x="200" y="300" type="curve"/>
    </contour>
    <contour>
      <point x="300" y="200" type="line"/>
      <point x="400" y="200" type="line"/>
      <point x="400" y="300" type="line"/>
      <point x="300" y="300" type="line"/>
    </contour>
    <contour>
      <point x="500" y="200" type="line"/>
      <point x="500" y="300" type="line"/>
      <point x="500" y="244"/>
      <point x="456" y="200"/>
      <point x="400" y="200" type="curve"/>
    </contour>
    <contour>
      <point x="100" y="300" type="line"/>
      <point x="200" y="300" type="line"/>
      <point x="200" y="400" type="line"/>
      <point x="100" y="400" type="line"/>
    </contour>
    <contour>
      <point x="300" y="300" type="line"/>
      <point x="400" y="300" type="line"/>
      <point x="400" y="400" type="line"/>
      <point x="300" y="400" type="line"/>
    </contour>
    <contour>
      <point x="500" y="300" type="line"/>
      <point x="600" y="300" type="line"/>
      <point x="600" y="400" type="line"/>
      <point x="500" y="400" type="line"/>
    </contour>
    <contour>
      <point x="300" y="400" type="line"/>
      <point x="400" y="400" type="line"/>
      <point x="400" y="500" type="line"/>
      <point x="300" y="500" type="line"/>
    </contour>
    <contour>
      <point x="300" y="500" type="line"/>
      <point x="400" y="500" type="line"/>
      <point x="400" y="600" type="line"/>
      <point x="300" y="600" type="line"/>
    </contour>
  </outline>
</glyph>
<glyph name="uni2198" format="2">
  <advance width="800"/>
  <unicode hex="2198"/>
  <outline>
    <contour>
      <point x="400" y="0" type="line"/>
      <point x="500" y="0" type="line"/>
      <point x="500" y="100" type="line"/>
      <point x="400" y="100" type="line"/>
    </contour>
    <contour>
      <point x="500" y="0" type="line"/>
      <point x="600" y="0" type="line"/>
      <point x="600" y="100" type="line"/>
      <point x="500" y="100" type="line"/>
    </contour>
    <contour>
      <point x="600" y="0" type="line"/>
      <point x="700" y="0" type="line"/>
      <point x="700" y="100" type="line"/>
      <point x="600" y="100" type="line"/>
    </contour>
    <contour>
      <point x="500" y="100" type="line"/>
      <point x="600" y="100" type="line"/>
      <point x="600" y="200" type="line"/>
      <point x="500" y="200" type="line"/>
    </contour>
    <contour>
      <point x="600" y="100" type="line"/>
      <point x="700" y="100" type="line"/>
      <point x="700" y="200" type="line"/>
      <point x="600" y="200" type="line"/>
    </contour>
    <contour>
      <point x="400" y="200" type="line"/>
      <point x="500" y="200" type="line"/>
      <point x="500" y="300" type="line"/>
      <point x="400" y="300" type="line"/>
    </contour>
    <contour>
      <point x="600" y="200" type="line"/>
      <point x="700" y="200" type="line"/>
      <point x="700" y="300" type="line"/>
      <point x="600" y="300" type="line"/>
    </contour>
    <contour>
      <point x="300" y="300" type="line"/>
      <point x="400" y="300" type="line"/>
      <point x="400" y="400" type="line"/>
      <point x="300" y="400" type="line"/>
    </contour>
    <contour>
      <point x="200" y="400" type="line"/>
      <point x="300" y="400" type="line"/>
      <point x="300" y="500" type="line"/>
      <point x="200" y="500" type="line"/>
    </contour>
    <contour>
      <point x="100" y="500" type="line"/>
      <point x="200" y="500" type="line"/>
      <point x="200" y="600" type="line"/>
      <point x="100" y="600" type="line"/>
    </contour>
  </outline>
</glyph>
<glyph name="uni2199" format="2">
  <advance width="800"/>
  <unicode hex="2199"/>
  <outline>
    <contour>
      <point x="100" y="0" type="line"/>
      <point x="200" y="0" type="line"/>
      <point x="200" y="100" type="line"/>
      <point x="100" y="100" type="line"/>
    </contour>
    <contour>
      <point x="200" y="0" type="line"/>
      <point x="300" y="0" type="line"/>
      <point x="300" y="100" type="line"/>
      <point x="200" y="100" type="line"/>
    </contour>
    <contour>
      <point x="300" y="0" type="line"/>
      <point x="400" y="0" type="line"/>
      <point x="400" y="100" type="line"/>
      <point x="300" y="100" type="line"/>
    </contour>
    <contour>
      <point x="100" y="100" type="line"/>
      <point x="200" y="100" type="line"/>
      <point x="200" y="200" type="line"/>
      <point x="100" y="200" type="line"/>
    </contour>
    <contour>
      <point x="200" y="100" type="line"/>
      <point x="300" y="100" type="line"/>
      <point x="300" y="200" type="line"/>
      <point x="200" y="200" type="line"/>
    </contour>
    <contour>
      <point x="100" y="200" type="line"/>
      <point x="200" y="200" type="line"/>
      <point x="200" y="300" type="line"/>
      <point x="100" y="300" type="line"/>
    </contour>
    <contour>
      <point x="300" y="200" type="line"/>
      <point x="400" y="200" type="line"/>
      <point x="400" y="300" type="line"/>
      <point x="300" y="300" type="line"/>
    </contour>
    <contour>
      <point x="400" y="300" type="line"/>
      <point x="500" y="300" type="line"/>
      <point x="500" y="400" type="line"/>
      <point x="400" y="400" type="line"/>
    </contour>
    <contour>
      <point x="500" y="400" type="line"/>
      <point x="600" y="400" type="line"/>
      <point x="600" y="500" type="line"/>
      <point x="500" y="500" type="line"/>
    </contour>
    <contour>
      <point x="600" y="500" type="line"/>
      <point x="700" y="500" type="line"/>
      <point x="700" y="600" type="line"/>
      <point x="600" y="600" type="line"/>
    </contour>
  </outline>
</glyph>
<glyph name="0P" format="2">
  <advance width="1000"/>
  <unicode hex="F0003"/>
  <outline>
    <contour>
      <point x="100" y="-200" type="line"/>
      <point x="200" y="-200" type="line"/>
      <point x="200" y="-100" type="line"/>
      <point x="100" y="-100" type="line"/>
    </contour>
    <contour>
      <point x="200" y="-200" type="line"/>
      <point x="300" y="-200" type="line"/>
      <point x="300" y="-100" type="line"/>
      <point x="200" y="-100" type="line"/>
    </contour>
    <contour>
      <point x="500" y="-200" type="line"/>
      <point x="600" y="-200" type="line"/>
      <point x="600" y="-100" type="line"/>
      <point x="500" y="-100" type="line"/>
    </contour>
    <contour>
      <point x="600" y="-200" type="line"/>
      <point x="700" y="-200" type="line"/>
      <point x="700" y="-100" type="line"/>
      <point x="600" y="-100" type="line"/>
    </contour>
    <contour>
      <point x="800" y="-200" type="line"/>
      <point x="900" y="-200" type="line"/>
      <point x="900" y="-100" type="line"/>
      <point x="800" y="-100" type="line"/>
    </contour>
    <contour>
      <point x="900" y="-200" type="line"/>
      <point x="1000" y="-200" type="line"/>
      <point x="1000" y="-100" type="line"/>
      <point x="900" y="-100" type="line"/>
    </contour>
    <contour>
      <point x="300" y="-100" type="line"/>
      <point x="400" y="-100" type="line"/>
      <point x="400" y="0" type="line"/>
      <point x="300" y="0" type="line"/>
    </contour>
    <contour>
      <point x="400" y="-100" type="line"/>
      <point x="500" y="-100" type="line"/>
      <point x="500" y="0" type="line"/>
      <point x="400" y="0" type="line"/>
    </contour>
    <contour>
      <point x="800" y="-100" type="line"/>
      <point x="900" y="-100" type="line"/>
      <point x="900" y="0" type="line"/>
      <point x="800" y="0" type="line"/>
    </contour>
    <contour>
      <point x="900" y="-100" type="line"/>
      <point x="1000" y="-100" type="line"/>
      <point x="1000" y="0" type="line"/>
      <point x="900" y="0" type="line"/>
    </contour>
    <contour>
      <point x="400" y="0" type="line"/>
      <point x="500" y="0" type="line"/>
      <point x="500" y="100" type="line"/>
      <point x="400" y="100" type="line"/>
    </contour>
    <contour>
      <point x="600" y="0" type="line"/>
      <point x="700" y="0" type="line"/>
      <point x="700" y="100" type="line"/>
      <point x="600" y="100" type="line"/>
    </contour>
    <contour>
      <point x="700" y="0" type="line"/>
      <point x="800" y="0" type="line"/>
      <point x="800" y="100" type="line"/>
      <point x="700" y="100" type="line"/>
    </contour>
    <contour>
      <point x="200" y="100" type="line"/>
      <point x="300" y="100" type="line"/>
      <point x="300" y="200" type="line"/>
      <point x="200" y="200" type="line"/>
    </contour>
    <contour>
      <point x="700" y="100" type="line"/>
      <point x="800" y="100" type="line"/>
      <point x="800" y="200" type="line"/>
      <point x="700" y="200" type="line"/>
    </contour>
    <contour>
      <point x="900" y="100" type="line"/>
      <point x="1000" y="100" type="line"/>
      <point x="1000" y="200" type="line"/>
      <point x="900" y="200" type="line"/>
    </contour>
    <contour>
      <point x="400" y="200" type="line"/>
      <point x="500" y="200" type="line"/>
      <point x="500" y="300" type="line"/>
      <point x="400" y="300" type="line"/>
    </contour>
    <contour>
      <point x="500" y="200" type="line"/>
      <point x="600" y="200" type="line"/>
      <point x="600" y="300" type="line"/>
      <point x="500" y="300" type="line"/>
    </contour>
    <contour>
      <point x="900" y="200" type="line"/>
      <point x="1000" y="200" type="line"/>
      <point x="1000" y="300" type="line"/>
      <point x="900" y="300" type="line"/>
    </contour>
    <contour>
      <point x="500" y="300" type="line"/>
      <point x="600" y="300" type="line"/>
      <point x="600" y="400" type="line"/>
      <point x="500" y="400" type="line"/>
    </contour>
    <contour>
      <point x="700" y="300" type="line"/>
      <point x="800" y="300" type="line"/>
      <point x="800" y="400" type="line"/>
      <point x="700" y="400" type="line"/>
    </contour>
    <contour>
      <point x="800" y="300" type="line"/>
      <point x="900" y="300" type="line"/>
      <point x="900" y="400" type="line"/>
      <point x="800" y="400" type="line"/>
    </contour>
    <contour>
      <point x="300" y="400" type="line"/>
      <point x="400" y="400" type="line"/>
      <point x="400" y="500" type="line"/>
      <point x="300" y="500" type="line"/>
    </contour>
    <contour>
      <point x="800" y="400" type="line"/>
      <point x="900" y="400" type="line"/>
      <point x="900" y="500" type="line"/>
      <point x="800" y="500" type="line"/>
    </contour>
    <contour>
      <point x="600" y="500" type="line"/>
      <point x="700" y="500" type="line"/>
      <point x="700" y="600" type="line"/>
      <point x="600" y="600" type="line"/>
    </contour>
    <contour>
      <point x="900" y="500" type="line"/>
      <point x="1000" y="500" type="line"/>
      <point x="1000" y="600" type="line"/>
      <point x="900" y="600" type="line"/>
    </contour>
    <contour>
      <point x="900" y="600" type="line"/>
      <point x="1000" y="600" type="line"/>
      <point x="1000" y="700" type="line"/>
      <point x="900" y="700" type="line"/>
    </contour>
  </outline>
</glyph>
<glyph name="0E" format="2">
  <advance width="1000"/>
  <unicode hex="F000D"/>
  <outline>
    <contour>
      <point x="0" y="1800" type="line"/>
      <point x="100" y="1800" type="line"/>
      <point x="100" y="1900" type="line"/>
      <point x="0" y="1900" type="line"/>
    </contour>
    <contour>
      <point x="100" y="1800" type="line"/>
      <point x="200" y="1800" type="line"/>
      <point x="200" y="1900" type="line"/>
      <point x="100" y="1900" type="line"/>
    </contour>
    <contour>
      <point x="200" y="1800" type="line"/>
      <point x="300" y="1800" type="line"/>
      <point x="300" y="1900" type="line"/>
      <point x="200" y="1900" type="line"/>
    </contour>
    <contour>
      <point x="300" y="1800" type="line"/>
      <point x="400" y="1800" type="line"/>
      <point x="400" y="1900" type="line"/>
      <point x="300" y="1900" type="line"/>
    </contour>
    <contour>
      <point x="400" y="1800" type="line"/>
      <point x="500" y="1800" type="line"/>
      <point x="500" y="1900" type="line"/>
      <point x="400" y="1900" type="line"/>
    </contour>
    <contour>
      <point x="500" y="1800" type="line"/>
      <point x="600" y="1800" type="line"/>
      <point x="600" y="1900" type="line"/>
      <point x="500" y="1900" type="line"/>
    </contour>
    <contour>
      <point x="0" y="1900" type="line"/>
      <point x="100" y="1900" type="line"/>
      <point x="100" y="2000" type="line"/>
      <point x="0" y="2000" type="line"/>
    </contour>
    <contour>
      <point x="100" y="1900" type="line"/>
      <point x="200" y="1900" type="line"/>
      <point x="200" y="2000" type="line"/>
      <point x="100" y="2000" type="line"/>
    </contour>
    <contour>
      <point x="200" y="1900" type="line"/>
      <point x="300" y="1900" type="line"/>
      <point x="300" y="2000" type="line"/>
      <point x="200" y="2000" type="line"/>
    </contour>
    <contour>
      <point x="300" y="1900" type="line"/>
      <point x="400" y="1900" type="line"/>
      <point x="400" y="2000" type="line"/>
      <point x="300" y="2000" type="line"/>
    </contour>
    <contour>
      <point x="400" y="1900" type="line"/>
      <point x="500" y="1900" type="line"/>
      <point x="500" y="2000" type="line"/>
      <point x="400" y="2000" type="line"/>
    </contour>
    <contour>
      <point x="500" y="1900" type="line"/>
      <point x="600" y="1900" type="line"/>
      <point x="600" y="2000" type="line"/>
      <point x="500" y="2000" type="line"/>
    </contour>
    <contour>
      <point x="400" y="2000" type="line"/>
      <point x="500" y="2000" type="line"/>
      <point x="500" y="2100" type="line"/>
      <point x="400" y="2100" type="line"/>
    </contour>
    <contour>
      <point x="500" y="2000" type="line"/>
      <point x="600" y="2000" type="line"/>
      <point x="600" y="2100" type="line"/>
      <point x="500" y="2100" type="line"/>
    </contour>
    <contour>
      <point x="600" y="2000" type="line"/>
      <point x="700" y="2000" type="line"/>
      <point x="700" y="2100" type="line"/>
      <point x="600" y="2100" type="line"/>
    </contour>
    <contour>
      <point x="700" y="2000" type="line"/>
      <point x="800" y="2000" type="line"/>
      <point x="800" y="2100" type="line"/>
      <point x="700" y="2100" type="line"/>
    </contour>
    <contour>
      <point x="400" y="2100" type="line"/>
      <point x="500" y="2100" type="line"/>
      <point x="500" y="2200" type="line"/>
      <point x="400" y="2200" type="line"/>
    </contour>
    <contour>
      <point x="500" y="2100" type="line"/>
      <point x="600" y="2100" type="line"/>
      <point x="600" y="2200" type="line"/>
      <point x="500" y="2200" type="line"/>
    </contour>
    <contour>
      <point x="600" y="2100" type="line"/>
      <point x="700" y="2100" type="line"/>
      <point x="700" y="2200" type="line"/>
      <point x="600" y="2200" type="line"/>
    </contour>
    <contour>
      <point x="700" y="2100" type="line"/>
      <point x="800" y="2100" type="line"/>
      <point x="800" y="2200" type="line"/>
      <point x="700" y="2200" type="line"/>
    </contour>
    <contour>
      <point x="200" y="2200" type="line"/>
      <point x="300" y="2200" type="line"/>
      <point x="300" y="2300" type="line"/>
      <point x="200" y="2300" type="line"/>
    </contour>
    <contour>
      <point x="300" y="2200" type="line"/>
      <point x="400" y="2200" type="line"/>
      <point x="400" y="2300" type="line"/>
      <point x="300" y="2300" type="line"/>
    </contour>
    <contour>
      <point x="400" y="2200" type="line"/>
      <point x="500" y="2200" type="line"/>
      <point x="500" y="2300" type="line"/>
      <point x="400" y="2300" type="line"/>
    </contour>
    <contour>
      <point x="500" y="2200" type="line"/>
      <point x="600" y="2200" type="line"/>
      <point x="600" y="2300" type="line"/>
      <point x="500" y="2300" type="line"/>
    </contour>
    <contour>
      <point x="200" y="2300" type="line"/>
      <point x="300" y="2300" type="line"/>
      <point x="300" y="2400" type="line"/>
      <point x="200" y="2400" type="line"/>
    </contour>
    <contour>
      <point x="300" y="2300" type="line"/>
      <point x="400" y="2300" type="line"/>
      <point x="400" y="2400" type="line"/>
      <point x="300" y="2400" type="line"/>
    </contour>
    <contour>
      <point x="400" y="2300" type="line"/>
      <point x="500" y="2300" type="line"/>
      <point x="500" y="2400" type="line"/>
      <point x="400" y="2400" type="line"/>
    </contour>
    <contour>
      <point x="500" y="2300" type="line"/>
      <point x="600" y="2300" type="line"/>
      <point x="600" y="2400" type="line"/>
      <point x="500" y="2400" type="line"/>
    </contour>
    <contour>
      <point x="400" y="2400" type="line"/>
      <point x="500" y="2400" type="line"/>
      <point x="500" y="2500" type="line"/>
      <point x="400" y="2500" type="line"/>
    </contour>
    <contour>
      <point x="500" y="2400" type="line"/>
      <point x="600" y="2400" type="line"/>
      <point x="600" y="2500" type="line"/>
      <point x="500" y="2500" type="line"/>
    </contour>
    <contour>
      <point x="600" y="2400" type="line"/>
      <point x="700" y="2400" type="line"/>
      <point x="700" y="2500" type="line"/>
      <point x="600" y="2500" type="line"/>
    </contour>
    <contour>
      <point x="700" y="2400" type="line"/>
      <point x="800" y="2400" type="line"/>
      <point x="800" y="2500" type="line"/>
      <point x="700" y="2500" type="line"/>
    </contour>
    <contour>
      <point x="800" y="2400" type="line"/>
      <point x="900" y="2400" type="line"/>
      <point x="900" y="2500" type="line"/>
      <point x="800" y="2500" type="line"/>
    </contour>
    <contour>
      <point x="900" y="2400" type="line"/>
      <point x="1000" y="2400" type="line"/>
      <point x="1000" y="2500" type="line"/>
      <point x="900" y="2500" type="line"/>
    </contour>
    <contour>
      <point x="400" y="2500" type="line"/>
      <point x="500" y="2500" type="line"/>
      <point x="500" y="2600" type="line"/>
      <point x="400" y="2600" type="line"/>
    </contour>
    <contour>
      <point x="500" y="2500" type="line"/>
      <point x="600" y="2500" type="line"/>
      <point x="600" y="2600" type="line"/>
      <point x="500" y="2600" type="line"/>
    </contour>
    <contour>
      <point x="600" y="2500" type="line"/>
      <point x="700" y="2500" type="line"/>
      <point x="700" y="2600" type="line"/>
      <point x="600" y="2600" type="line"/>
    </contour>
    <contour>
      <point x="700" y="2500" type="line"/>
      <point x="800" y="2500" type="line"/>
      <point x="800" y="2600" type="line"/>
      <point x="700" y="2600" type="line"/>
    </contour>
    <contour>
      <point x="800" y="2500" type="line"/>
      <point x="900" y="2500" type="line"/>
      <point x="900" y="2600" type="line"/>
      <point x="800" y="2600" type="line"/>
    </contour>
    <contour>
      <point x="900" y="2500" type="line"/>
      <point x="1000" y="2500" type="line"/>
      <point x="1000" y="2600" type="line"/>
      <point x="900" y="2600" type="line"/>
    </contour>
    <contour>
      <point x="800" y="2600" type="line"/>
      <point x="900" y="2600" type="line"/>
      <point x="900" y="2700" type="line"/>
      <point x="800" y="2700" type="line"/>
    </contour>
    <contour>
      <point x="900" y="2600" type="line"/>
      <point x="1000" y="2600" type="line"/>
      <point x="1000" y="2700" type="line"/>
      <point x="900" y="2700" type="line"/>
    </contour>
    <contour>
      <point x="800" y="2700" type="line"/>
      <point x="900" y="2700" type="line"/>
      <point x="900" y="2800" type="line"/>
      <point x="800" y="2800" type="line"/>
    </contour>
    <contour>
      <point x="900" y="2700" type="line"/>
      <point x="1000" y="2700" type="line"/>
      <point x="1000" y="2800" type="line"/>
      <point x="900" y="2800" type="line"/>
    </contour>
  </outline>
</glyph>
<glyph name="2D" format="2">
  <unicode hex="F0029"/>
  <outline>
    <contour>
      <point x="0" y="-200" type="line"/>
      <point x="100" y="-200" type="line"/>
      <point x="100" y="-100" type="line"/>
      <point x="0" y="-100" type="line"/>
    </contour>
    <contour>
      <point x="100" y="-200" type="line"/>
      <point x="200" y="-200" type="line"/>
      <point x="200" y="-100" type="line"/>
      <point x="100" y="-100" type="line"/>
    </contour>
    <contour>
      <point x="0" y="-100" type="line"/>
      <point x="100" y="-100" type="line"/>
      <point x="100" y="0" type="line"/>
      <point x="0" y="0" type="line"/>
    </contour>
    <contour>
      <point x="100" y="-100" type="line"/>
      <point x="200" y="-100" type="line"/>
      <point x="200" y="0" type="line"/>
      <point x="100" y="0" type="line"/>
    </contour>
    <contour>
      <point x="400" y="0" type="line"/>
      <point x="500" y="0" type="line"/>
      <point x="500" y="100" type="line"/>
      <point x="400" y="100" type="line"/>
    </contour>
    <contour>
      <point x="500" y="0" type="line"/>
      <point x="600" y="0" type="line"/>
      <point x="600" y="100" type="line"/>
      <point x="500" y="100" type="line"/>
    </contour>
    <contour>
      <point x="800" y="0" type="line"/>
      <point x="900" y="0" type="line"/>
      <point x="900" y="100" type="line"/>
      <point x="800" y="100" type="line"/>
    </contour>
    <contour>
      <point x="900" y="0" type="line"/>
      <point x="1000" y="0" type="line"/>
      <point x="1000" y="100" type="line"/>
      <point x="900" y="100" type="line"/>
    </contour>
    <contour>
      <point x="400" y="100" type="line"/>
      <point x="500" y="100" type="line"/>
      <point x="500" y="200" type="line"/>
      <point x="400" y="200" type="line"/>
    </contour>
    <contour>
      <point x="500" y="100" type="line"/>
      <point x="600" y="100" type="line"/>
      <point x="600" y="200" type="line"/>
      <point x="500" y="200" type="line"/>
    </contour>
    <contour>
      <point x="800" y="100" type="line"/>
      <point x="900" y="100" type="line"/>
      <point x="900" y="200" type="line"/>
      <point x="800" y="200" type="line"/>
    </contour>
    <contour>
      <point x="900" y="100" type="line"/>
      <point x="1000" y="100" type="line"/>
      <point x="1000" y="200" type="line"/>
      <point x="900" y="200" type="line"/>
    </contour>
    <contour>
      <point x="200" y="200" type="line"/>
      <point x="300" y="200" type="line"/>
      <point x="300" y="300" type="line"/>
      <point x="200" y="300" type="line"/>
    </contour>
    <contour>
      <point x="300" y="200" type="line"/>
      <point x="400" y="200" type="line"/>
      <point x="400" y="300" type="line"/>
      <point x="300" y="300" type="line"/>
    </contour>
    <contour>
      <point x="400" y="200" type="line"/>
      <point x="500" y="200" type="line"/>
      <point x="500" y="300" type="line"/>
      <point x="400" y="300" type="line"/>
    </contour>
    <contour>
      <point x="500" y="200" type="line"/>
      <point x="600" y="200" type="line"/>
      <point x="600" y="300" type="line"/>
      <point x="500" y="300" type="line"/>
    </contour>
    <contour>
      <point x="200" y="300" type="line"/>
      <point x="300" y="300" type="line"/>
      <point x="300" y="400" type="line"/>
      <point x="200" y="400" type="line"/>
    </contour>
    <contour>
      <point x="300" y="300" type="line"/>
      <point x="400" y="300" type="line"/>
      <point x="400" y="400" type="line"/>
      <point x="300" y="400" type="line"/>
    </contour>
    <contour>
      <point x="400" y="300" type="line"/>
      <point x="500" y="300" type="line"/>
      <point x="500" y="400" type="line"/>
      <point x="400" y="400" type="line"/>
    </contour>
    <contour>
      <point x="500" y="300" type="line"/>
      <point x="600" y="300" type="line"/>
      <point x="600" y="400" type="line"/>
      <point x="500" y="400" type="line"/>
    </contour>
    <contour>
      <point x="600" y="400" type="line"/>
      <point x="700" y="400" type="line"/>
      <point x="700" y="500" type="line"/>
      <point x="600" y="500" type="line"/>
    </contour>
    <contour>
      <point x="700" y="400" type="line"/>
      <point x="800" y="400" type="line"/>
      <point x="800" y="500" type="line"/>
      <point x="700" y="500" type="line"/>
    </contour>
    <contour>
      <point x="800" y="400" type="line"/>
      <point x="900" y="400" type="line"/>
      <point x="900" y="500" type="line"/>
      <point x="800" y="500" type="line"/>
    </contour>
    <contour>
      <point x="900" y="400" type="line"/>
      <point x="1000" y="400" type="line"/>
      <point x="1000" y="500" type="line"/>
      <point x="900" y="500" type="line"/>
    </contour>
    <contour>
      <point x="600" y="500" type="line"/>
      <point x="700" y="500" type="line"/>
      <point x="700" y="600" type="line"/>
      <point x="600" y="600" type="line"/>
    </contour>
    <contour>
      <point x="700" y="500" type="line"/>
      <point x="800" y="500" type="line"/>
      <point x="800" y="600" type="line"/>
      <point x="700" y="600" type="line"/>
    </contour>
    <contour>
      <point x="800" y="500" type="line"/>
      <point x="900" y="500" type="line"/>
      <point x="900" y="600" type="line"/>
      <point x="800" y="600" type="line"/>
    </contour>
    <contour>
      <point x="900" y="500" type="line"/>
      <point x="1000" y="500" type="line"/>
      <point x="1000" y="600" type="line"/>
      <point x="900" y="600" type="line"/>
    </contour>
    <contour>
      <point x="200" y="600" type="line"/>
      <point x="300" y="600" type="line"/>
      <point x="300" y="700" type="line"/>
      <point x="200" y="700" type="line"/>
    </contour>
    <contour>
      <point x="300" y="600" type="line"/>
      <point x="400" y="600" type="line"/>
      <point x="400" y="700" type="line"/>
      <point x="300" y="700" type="line"/>
    </contour>
    <contour>
      <point x="600" y="600" type="line"/>
      <point x="700" y="600" type="line"/>
      <point x="700" y="700" type="line"/>
      <point x="600" y="700" type="line"/>
    </contour>
    <contour>
      <point x="700" y="600" type="line"/>
      <point x="800" y="600" type="line"/>
      <point x="800" y="700" type="line"/>
      <point x="700" y="700" type="line"/>
    </contour>
    <contour>
      <point x="200" y="700" type="line"/>
      <point x="300" y="700" type="line"/>
      <point x="300" y="800" type="line"/>
      <point x="200" y="800" type="line"/>
    </contour>
    <contour>
      <point x="300" y="700" type="line"/>
      <point x="400" y="700" type="line"/>
      <point x="400" y="800" type="line"/>
      <point x="300" y="800" type="line"/>
    </contour>
    <contour>
      <point x="600" y="700" type="line"/>
      <point x="700" y="700" type="line"/>
      <point x="700" y="800" type="line"/>
      <point x="600" y="800" type="line"/>
    </contour>
    <contour>
      <point x="700" y="700" type="line"/>
      <point x="800" y="700" type="line"/>
      <point x="800" y="800" type="line"/>
      <point x="700" y="800" type="line"/>
    </contour>
  </outline>
</glyph>
<glyph name="3D" format="2">
  <advance width="1000"/>
  <unicode hex="F002C"/>
  <outline>
    <contour>
      <point x="800" y="600" type="line"/>
      <point x="900" y="600" type="line"/>
      <point x="900" y="700" type="line"/>
      <point x="800" y="700" type="line"/>
    </contour>
    <contour>
      <point x="900" y="600" type="line"/>
      <point x="1000" y="600" type="line"/>
      <point x="1000" y="700" type="line"/>
      <point x="900" y="700" type="line"/>
    </contour>
    <contour>
      <point x="800" y="700" type="line"/>
      <point x="900" y="700" type="line"/>
      <point x="900" y="800" type="line"/>
      <point x="800" y="800" type="line"/>
    </contour>
    <contour>
      <point x="900" y="700" type="line"/>
      <point x="1000" y="700" type="line"/>
      <point x="1000" y="800" type="line"/>
      <point x="900" y="800" type="line"/>
    </contour>
    <contour>
      <point x="0" y="800" type="line"/>
      <point x="100" y="800" type="line"/>
      <point x="100" y="900" type="line"/>
      <point x="0" y="900" type="line"/>
    </contour>
    <contour>
      <point x="100" y="800" type="line"/>
      <point x="200" y="800" type="line"/>
      <point x="200" y="900" type="line"/>
      <point x="100" y="900" type="line"/>
    </contour>
    <contour>
      <point x="400" y="800" type="line"/>
      <point x="500" y="800" type="line"/>
      <point x="500" y="900" type="line"/>
      <point x="400" y="900" type="line"/>
    </contour>
    <contour>
      <point x="500" y="800" type="line"/>
      <point x="600" y="800" type="line"/>
      <point x="600" y="900" type="line"/>
      <point x="500" y="900" type="line"/>
    </contour>
    <contour>
      <point x="0" y="900" type="line"/>
      <point x="100" y="900" type="line"/>
      <point x="100" y="1000" type="line"/>
      <point x="0" y="1000" type="line"/>
    </contour>
    <contour>
      <point x="100" y="900" type="line"/>
      <point x="200" y="900" type="line"/>
      <point x="200" y="1000" type="line"/>
      <point x="100" y="1000" type="line"/>
    </contour>
    <contour>
      <point x="400" y="900" type="line"/>
      <point x="500" y="900" type="line"/>
      <point x="500" y="1000" type="line"/>
      <point x="400" y="1000" type="line"/>
    </contour>
    <contour>
      <point x="500" y="900" type="line"/>
      <point x="600" y="900" type="line"/>
      <point x="600" y="1000" type="line"/>
      <point x="500" y="1000" type="line"/>
    </contour>
    <contour>
      <point x="400" y="1000" type="line"/>
      <point x="500" y="1000" type="line"/>
      <point x="500" y="1100" type="line"/>
      <point x="400" y="1100" type="line"/>
    </contour>
    <contour>
      <point x="500" y="1000" type="line"/>
      <point x="600" y="1000" type="line"/>
      <point x="600" y="1100" type="line"/>
      <point x="500" y="1100" type="line"/>
    </contour>
    <contour>
      <point x="600" y="1000" type="line"/>
      <point x="700" y="1000" type="line"/>
      <point x="700" y="1100" type="line"/>
      <point x="600" y="1100" type="line"/>
    </contour>
    <contour>
      <point x="700" y="1000" type="line"/>
      <point x="800" y="1000" type="line"/>
      <point x="800" y="1100" type="line"/>
      <point x="700" y="1100" type="line"/>
    </contour>
    <contour>
      <point x="400" y="1100" type="line"/>
      <point x="500" y="1100" type="line"/>
      <point x="500" y="1200" type="line"/>
      <point x="400" y="1200" type="line"/>
    </contour>
    <contour>
      <point x="500" y="1100" type="line"/>
      <point x="600" y="1100" type="line"/>
      <point x="600" y="1200" type="line"/>
      <point x="500" y="1200" type="line"/>
    </contour>
    <contour>
      <point x="600" y="1100" type="line"/>
      <point x="700" y="1100" type="line"/>
      <point x="700" y="1200" type="line"/>
      <point x="600" y="1200" type="line"/>
    </contour>
    <contour>
      <point x="700" y="1100" type="line"/>
      <point x="800" y="1100" type="line"/>
      <point x="800" y="1200" type="line"/>
      <point x="700" y="1200" type="line"/>
    </contour>
    <contour>
      <point x="0" y="1200" type="line"/>
      <point x="100" y="1200" type="line"/>
      <point x="100" y="1300" type="line"/>
      <point x="0" y="1300" type="line"/>
    </contour>
    <contour>
      <point x="100" y="1200" type="line"/>
      <point x="200" y="1200" type="line"/>
      <point x="200" y="1300" type="line"/>
      <point x="100" y="1300" type="line"/>
    </contour>
    <contour>
      <point x="200" y="1200" type="line"/>
      <point x="300" y="1200" type="line"/>
      <point x="300" y="1300" type="line"/>
      <point x="200" y="1300" type="line"/>
    </contour>
    <contour>
      <point x="300" y="1200" type="line"/>
      <point x="400" y="1200" type="line"/>
      <point x="400" y="1300" type="line"/>
      <point x="300" y="1300" type="line"/>
    </contour>
    <contour>
      <point x="0" y="1300" type="line"/>
      <point x="100" y="1300" type="line"/>
      <point x="100" y="1400" type="line"/>
      <point x="0" y="1400" type="line"/>
    </contour>
    <contour>
      <point x="100" y="1300" type="line"/>
      <point x="200" y="1300" type="line"/>
      <point x="200" y="1400" type="line"/>
      <point x="100" y="1400" type="line"/>
    </contour>
    <contour>
      <point x="200" y="1300" type="line"/>
      <point x="300" y="1300" type="line"/>
      <point x="300" y="1400" type="line"/>
      <point x="200" y="1400" type="line"/>
    </contour>
    <contour>
      <point x="300" y="1300" type="line"/>
      <point x="400" y="1300" type="line"/>
      <point x="400" y="1400" type="line"/>
      <point x="300" y="1400" type="line"/>
    </contour>
    <contour>
      <point x="200" y="1400" type="line"/>
      <point x="300" y="1400" type="line"/>
      <point x="300" y="1500" type="line"/>
      <point x="200" y="1500" type="line"/>
    </contour>
    <contour>
      <point x="300" y="1400" type="line"/>
      <point x="400" y="1400" type="line"/>
      <point x="400" y="1500" type="line"/>
      <point x="300" y="1500" type="line"/>
    </contour>
    <contour>
      <point x="600" y="1400" type="line"/>
      <point x="700" y="1400" type="line"/>
      <point x="700" y="1500" type="line"/>
      <point x="600" y="1500" type="line"/>
    </contour>
    <contour>
      <point x="700" y="1400" type="line"/>
      <point x="800" y="1400" type="line"/>
      <point x="800" y="1500" type="line"/>
      <point x="700" y="1500" type="line"/>
    </contour>
    <contour>
      <point x="200" y="1500" type="line"/>
      <point x="300" y="1500" type="line"/>
      <point x="300" y="1600" type="line"/>
      <point x="200" y="1600" type="line"/>
    </contour>
    <contour>
      <point x="300" y="1500" type="line"/>
      <point x="400" y="1500" type="line"/>
      <point x="400" y="1600" type="line"/>
      <point x="300" y="1600" type="line"/>
    </contour>
    <contour>
      <point x="600" y="1500" type="line"/>
      <point x="700" y="1500" type="line"/>
      <point x="700" y="1600" type="line"/>
      <point x="600" y="1600" type="line"/>
    </contour>
    <contour>
      <point x="700" y="1500" type="line"/>
      <point x="800" y="1500" type="line"/>
      <point x="800" y="1600" type="line"/>
      <point x="700" y="1600" type="line"/>
    </contour>
  </outline>
</glyph>
<glyph name="patternF2" format="2">
  <advance width="800"/>
  <unicode hex="F0049"/>
  <outline>
    <contour>
      <point x="100" y="-100" type="line"/>
      <point x="200" y="-100" type="line"/>
      <point x="200" y="0" type="line"/>
      <point x="100" y="0" type="line"/>
    </contour>
    <contour>
      <point x="200" y="-100" type="line"/>
      <point x="300" y="-100" type="line"/>
      <point x="300" y="0" type="line"/>
      <point x="200" y="0" type="line"/>
    </contour>
    <contour>
      <point x="500" y="-100" type="line"/>
      <point x="600" y="-100" type="line"/>
      <point x="600" y="0" type="line"/>
      <point x="500" y="0" type="line"/>
    </contour>
    <contour>
      <point x="600" y="-100" type="line"/>
      <point x="700" y="-100" type="line"/>
      <point x="700" y="0" type="line"/>
      <point x="600" y="0" type="line"/>
    </contour>
    <contour>
      <point x="200" y="0" type="line"/>
      <point x="300" y="0" type="line"/>
      <point x="300" y="100" type="line"/>
      <point x="200" y="100" type="line"/>
    </contour>
    <contour>
      <point x="300" y="0" type="line"/>
      <point x="400" y="0" type="line"/>
      <point x="400" y="100" type="line"/>
      <point x="300" y="100" type="line"/>
    </contour>
    <contour>
      <point x="600" y="0" type="line"/>
      <point x="700" y="0" type="line"/>
      <point x="700" y="100" type="line"/>
      <point x="600" y="100" type="line"/>
    </contour>
    <contour>
      <point x="700" y="0" type="line"/>
      <point x="800" y="0" type="line"/>
      <point x="800" y="100" type="line"/>
      <point x="700" y="100" type="line"/>
    </contour>
    <contour>
      <point x="0" y="100" type="line"/>
      <point x="100" y="100" type="line"/>
      <point x="100" y="200" type="line"/>
      <point x="0" y="200" type="line"/>
    </contour>
    <contour>
      <point x="300" y="100" type="line"/>
      <point x="400" y="100" type="line"/>
      <point x="400" y="200" type="line"/>
      <point x="300" y="200" type="line"/>
    </contour>
    <contour>
      <point x="400" y="100" type="line"/>
      <point x="500" y="100" type="line"/>
      <point x="500" y="200" type="line"/>
      <point x="400" y="200" type="line"/>
    </contour>
    <contour>
      <point x="700" y="100" type="line"/>
      <point x="800" y="100" type="line"/>
      <point x="800" y="200" type="line"/>
      <point x="700" y="200" type="line"/>
    </contour>
    <contour>
      <point x="0" y="200" type="line"/>
      <point x="100" y="200" type="line"/>
      <point x="100" y="300" type="line"/>
      <point x="0" y="300" type="line"/>
    </contour>
    <contour>
      <point x="100" y="200" type="line"/>
      <point x="200" y="200" type="line"/>
      <point x="200" y="300" type="line"/>
      <point x="100" y="300" type="line"/>
    </contour>
    <contour>
      <point x="400" y="200" type="line"/>
      <point x="500" y="200" type="line"/>
      <point x="500" y="300" type="line"/>
      <point x="400" y="300" type="line"/>
    </contour>
    <contour>
      <point x="500" y="200" type="line"/>
      <point x="600" y="200" type="line"/>
      <point x="600" y="300" type="line"/>
      <point x="500" y="300" type="line"/>
    </contour>
    <contour>
      <point x="100" y="300" type="line"/>
      <point x="200" y="300" type="line"/>
      <point x="200" y="400" type="line"/>
      <point x="100" y="400" type="line"/>
    </contour>
    <contour>
      <point x="200" y="300" type="line"/>
      <point x="300" y="300" type="line"/>
      <point x="300" y="400" type="line"/>
      <point x="200" y="400" type="line"/>
    </contour>
    <contour>
      <point x="500" y="300" type="line"/>
      <point x="600" y="300" type="line"/>
      <point x="600" y="400" type="line"/>
      <point x="500" y="400" type="line"/>
    </contour>
    <contour>
      <point x="600" y="300" type="line"/>
      <point x="700" y="300" type="line"/>
      <point x="700" y="400" type="line"/>
      <point x="600" y="400" type="line"/>
    </contour>
    <contour>
      <point x="200" y="400" type="line"/>
      <point x="300" y="400" type="line"/>
      <point x="300" y="500" type="line"/>
      <point x="200" y="500" type="line"/>
    </contour>
    <contour>
      <point x="300" y="400" type="line"/>
      <point x="400" y="400" type="line"/>
      <point x="400" y="500" type="line"/>
      <point x="300" y="500" type="line"/>
    </contour>
    <contour>
      <point x="600" y="400" type="line"/>
      <point x="700" y="400" type="line"/>
      <point x="700" y="500" type="line"/>
      <point x="600" y="500" type="line"/>
    </contour>
    <contour>
      <point x="700" y="400" type="line"/>
      <point x="800" y="400" type="line"/>
      <point x="800" y="500" type="line"/>
      <point x="700" y="500" type="line"/>
    </contour>
    <contour>
      <point x="0" y="500" type="line"/>
      <point x="100" y="500" type="line"/>
      <point x="100" y="600" type="line"/>
      <point x="0" y="600" type="line"/>
    </contour>
    <contour>
      <point x="300" y="500" type="line"/>
      <point x="400" y="500" type="line"/>
      <point x="400" y="600" type="line"/>
      <point x="300" y="600" type="line"/>
    </contour>
    <contour>
      <point x="400" y="500" type="line"/>
      <point x="500" y="500" type="line"/>
      <point x="500" y="600" type="line"/>
      <point x="400" y="600" type="line"/>
    </contour>
    <contour>
      <point x="700" y="500" type="line"/>
      <point x="800" y="500" type="line"/>
      <point x="800" y="600" type="line"/>
      <point x="700" y="600" type="line"/>
    </contour>
    <contour>
      <point x="0" y="600" type="line"/>
      <point x="100" y="600" type="line"/>
      <point x="100" y="700" type="line"/>
      <point x="0" y="700" type="line"/>
    </contour>
    <contour>
      <point x="100" y="600" type="line"/>
      <point x="200" y="600" type="line"/>
      <point x="200" y="700" type="line"/>
      <point x="100" y="700" type="line"/>
    </contour>
    <contour>
      <point x="400" y="600" type="line"/>
      <point x="500" y="600" type="line"/>
      <point x="500" y="700" type="line"/>
      <point x="400" y="700" type="line"/>
    </contour>
    <contour>
      <point x="500" y="600" type="line"/>
      <point x="600" y="600" type="line"/>
      <point x="600" y="700" type="line"/>
      <point x="500" y="700" type="line"/>
    </contour>
    <contour>
      <point x="100" y="700" type="line"/>
      <point x="200" y="700" type="line"/>
      <point x="200" y="800" type="line"/>
      <point x="100" y="800" type="line"/>
    </contour>
    <contour>
      <point x="200" y="700" type="line"/>
      <point x="300" y="700" type="line"/>
      <point x="300" y="800" type="line"/>
      <point x="200" y="800" type="line"/>
    </contour>
    <contour>
      <point x="500" y="700" type="line"/>
      <point x="600" y="700" type="line"/>
      <point x="600" y="800" type="line"/>
      <point x="500" y="800" type="line"/>
    </contour>
    <contour>
      <point x="600" y="700" type="line"/>
      <point x="700" y="700" type="line"/>
      <point x="700" y="800" type="line"/>
      <point x="600" y="800" type="line"/>
    </contour>
    <contour>
      <point x="200" y="800" type="line"/>
      <point x="300" y="800" type="line"/>
      <point x="300" y="900" type="line"/>
      <point x="200" y="900" type="line"/>
    </contour>
    <contour>
      <point x="300" y="800" type="line"/>
      <point x="400" y="800" type="line"/>
      <point x="400" y="900" type="line"/>
      <point x="300" y="900" type="line"/>
    </contour>
    <contour>
      <point x="600" y="800" type="line"/>
      <point x="700" y="800" type="line"/>
      <point x="700" y="900" type="line"/>
      <point x="600" y="900" type="line"/>
    </contour>
    <contour>
      <point x="700" y="800" type="line"/>
      <point x="800" y="800" type="line"/>
      <point x="800" y="900" type="line"/>
      <point x="700" y="900" type="line"/>
    </contour>
  </outline>
</glyph>
<glyph name="circumflexcomb" format="2">
  <advance width="500"/>
  <unicode hex="F0057"/>
  <outline>
    <contour>
      <point x="100" y="700" type="line"/>
      <point x="100" y="600" type="line"/>
      <point x="100" y="656"/>
      <point x="144" y="700"/>
      <point x="200" y="700" type="curve"/>
    </contour>
    <contour>
      <point x="400" y="700" type="line"/>
      <point x="300" y="700" type="line"/>
      <point x="356" y="700"/>
      <point x="400" y="656"/>
      <point x="400" y="600" type="curve"/>
    </contour>
    <contour>
      <point x="200" y="700" type="line"/>
      <point x="300" y="700" type="line"/>
      <point x="300" y="800" type="line"/>
      <point x="200" y="800" type="line"/>
    </contour>
  </outline>
</glyph>
<glyph name="quotebdl" format="2">
  <advance width="500"/>
  <unicode hex="F0058"/>
  <outline>
    <contour>
      <point x="100" y="500" type="line"/>
      <point x="200" y="500" type="line"/>
      <point x="200" y="600" type="line"/>
      <point x="100" y="600" type="line"/>
    </contour>
    <contour>
      <point x="300" y="500" type="line"/>
      <point x="400" y="500" type="line"/>
      <point x="400" y="600" type="line"/>
      <point x="300" y="600" type="line"/>
    </contour>
    <contour>
      <point x="100" y="600" type="line"/>
      <point x="200" y="600" type="line"/>
      <point x="200" y="700" type="line"/>
      <point x="100" y="700" type="line"/>
    </contour>
    <contour>
      <point x="300" y="600" type="line"/>
      <point x="400" y="600" type="line"/>
      <point x="400" y="700" type="line"/>
      <point x="300" y="700" type="line"/>
    </contour>
    <contour>
      <point x="100" y="700" type="line"/>
      <point x="200" y="700" type="line"/>
      <point x="200" y="800" type="line"/>
      <point x="100" y="800" type="line"/>
    </contour>
    <contour>
      <point x="300" y="700" type="line"/>
      <point x="400" y="700" type="line"/>
      <point x="400" y="800" type="line"/>
      <point x="300" y="800" type="line"/>
    </contour>
  </outline>
</glyph>
<glyph name="five.onum" format="2">
  <advance width="700"/>
  <outline>
    <contour>
      <point x="100" y="-200" type="line"/>
      <point x="200" y="-200" type="line"/>
      <point x="200" y="-100" type="line"/>
      <point x="100" y="-100" type="line"/>
    </contour>
    <contour>
      <point x="200" y="-200" type="line"/>
      <point x="300" y="-200" type="line"/>
      <point x="300" y="-100" type="line"/>
      <point x="200" y="-100" type="line"/>
    </contour>
    <contour>
      <point x="300" y="-200" type="line"/>
      <point x="400" y="-200" type="line"/>
      <point x="400" y="-100" type="line"/>
      <point x="300" y="-100" type="line"/>
    </contour>
    <contour>
      <point x="400" y="-200" type="line"/>
      <point x="500" y="-200" type="line"/>
      <point x="500" y="-100" type="line"/>
      <point x="400" y="-100" type="line"/>
    </contour>
    <contour>
      <point x="600" y="-200" type="line"/>
      <point x="600" y="-100" type="line"/>
      <point x="600" y="-156"/>
      <point x="556" y="-200"/>
      <point x="500" y="-200" type="curve"/>
    </contour>
    <contour>
      <point x="200" y="0" type="line"/>
      <point x="100" y="0" type="line"/>
      <point x="156" y="0"/>
      <point x="200" y="-44"/>
      <point x="200" y="-100" type="curve"/>
    </contour>
    <contour>
      <point x="500" y="-100" type="line"/>
      <point x="600" y="-100" type="line"/>
      <point x="600" y="0" type="line"/>
      <point x="500" y="0" type="line"/>
    </contour>
    <contour>
      <point x="500" y="0" type="line"/>
      <point x="600" y="0" type="line"/>
      <point x="600" y="100" type="line"/>
      <point x="500" y="100" type="line"/>
    </contour>
    <contour>
      <point x="500" y="100" type="line"/>
      <point x="600" y="100" type="line"/>
      <point x="600" y="200" type="line"/>
      <point x="500" y="200" type="line"/>
    </contour>
    <contour>
      <point x="100" y="200" type="line"/>
      <point x="200" y="200" type="line"/>
      <point x="144" y="200"/>
      <point x="100" y="244"/>
      <point x="100" y="300" type="curve"/>
    </contour>
    <contour>
      <point x="200" y="200" type="line"/>
      <point x="300" y="200" type="line"/>
      <point x="300" y="300" type="line"/>
      <point x="200" y="300" type="line"/>
    </contour>
    <contour>
      <point x="300" y="200" type="line"/>
      <point x="400" y="200" type="line"/>
      <point x="400" y="300" type="line"/>
      <point x="300" y="300" type="line"/>
    </contour>
    <contour>
      <point x="500" y="300" type="line"/>
      <point x="400" y="300" type="line"/>
      <point x="456" y="300"/>
      <point x="500" y="256"/>
      <point x="500" y="200" type="curve"/>
    </contour>
    <contour>
      <point x="100" y="300" type="line"/>
      <point x="200" y="300" type="line"/>
      <point x="200" y="400" type="line"/>
      <point x="100" y="400" type="line"/>
    </contour>
    <contour>
      <point x="100" y="400" type="line"/>
      <point x="200" y="400" type="line"/>
      <point x="200" y="500" type="line"/>
      <point x="100" y="500" type="line"/>
    </contour>
    <contour>
      <point x="500" y="400" type="line"/>
      <point x="600" y="400" type="line"/>
      <point x="544" y="400"/>
      <point x="500" y="444"/>
      <point x="500" y="500" type="curve"/>
    </contour>
    <contour>
      <point x="100" y="500" type="line"/>
      <point x="200" y="500" type="line"/>
      <point x="200" y="600" type="line"/>
      <point x="100" y="600" type="line"/>
    </contour>
    <contour>
      <point x="200" y="500" type="line"/>
      <point x="300" y="500" type="line"/>
      <point x="300" y="600" type="line"/>
      <point x="200" y="600" type="line"/>
    </contour>
    <contour>
      <point x="300" y="500" type="line"/>
      <point x="400" y="500" type="line"/>
      <point x="400" y="600" type="line"/>
      <point x="300" y="600" type="line"/>
    </contour>
    <contour>
      <point x="400" y="500" type="line"/>
      <point x="500" y="500" type="line"/>
      <point x="500" y="600" type="line"/>
      <point x="400" y="600" type="line"/>
    </contour>
    <contour>
      <point x="500" y="500" type="line"/>
      <point x="600" y="500" type="line"/>
      <point x="600" y="600" type="line"/>
      <point x="500" y="600" type="line"/>
    </contour>
  </outline>
</glyph>
